<mxfile host="app.diagrams.net" modified="2021-10-14T14:26:42.256Z" agent="5.0 (Windows NT 10.0; Win64; x64) AppleWebKit/537.36 (KHTML, like Gecko) Chrome/94.0.4606.71 Safari/537.36 Edg/94.0.992.38" etag="OZr8yfwQhHUH3jdqhy2K" version="15.5.2" type="github">
  <diagram name="Proyectos" id="26RCpwUoKZsfUP4gCK3w">
    <mxGraphModel dx="2187" dy="2026" grid="1" gridSize="10" guides="1" tooltips="1" connect="1" arrows="1" fold="1" page="1" pageScale="1" pageWidth="827" pageHeight="1169" math="0" shadow="0">
      <root>
        <mxCell id="6z6u2LCvfEY30JD9aU4q-0" />
        <mxCell id="6z6u2LCvfEY30JD9aU4q-1" parent="6z6u2LCvfEY30JD9aU4q-0" />
        <mxCell id="6z6u2LCvfEY30JD9aU4q-2" value="Producto A (Whatapp)" style="shape=cube;whiteSpace=wrap;html=1;boundedLbl=1;backgroundOutline=1;darkOpacity=0.05;darkOpacity2=0.1;" parent="6z6u2LCvfEY30JD9aU4q-1" vertex="1">
          <mxGeometry x="440" y="60" width="220" height="150" as="geometry" />
        </mxCell>
        <mxCell id="6z6u2LCvfEY30JD9aU4q-5" value="r1.1.0" style="shape=cube;whiteSpace=wrap;html=1;boundedLbl=1;backgroundOutline=1;darkOpacity=0.05;darkOpacity2=0.1;" parent="6z6u2LCvfEY30JD9aU4q-1" vertex="1">
          <mxGeometry x="260" y="80" width="70" height="60" as="geometry" />
        </mxCell>
        <mxCell id="6z6u2LCvfEY30JD9aU4q-6" value="r1.0.1" style="shape=cube;whiteSpace=wrap;html=1;boundedLbl=1;backgroundOutline=1;darkOpacity=0.05;darkOpacity2=0.1;" parent="6z6u2LCvfEY30JD9aU4q-1" vertex="1">
          <mxGeometry x="210" y="80" width="70" height="60" as="geometry" />
        </mxCell>
        <mxCell id="6z6u2LCvfEY30JD9aU4q-7" value="r1.0.0" style="shape=cube;whiteSpace=wrap;html=1;boundedLbl=1;backgroundOutline=1;darkOpacity=0.05;darkOpacity2=0.1;" parent="6z6u2LCvfEY30JD9aU4q-1" vertex="1">
          <mxGeometry x="160" y="80" width="70" height="60" as="geometry" />
        </mxCell>
        <mxCell id="6z6u2LCvfEY30JD9aU4q-8" value="r2.3.0" style="shape=cube;whiteSpace=wrap;html=1;boundedLbl=1;backgroundOutline=1;darkOpacity=0.05;darkOpacity2=0.1;" parent="6z6u2LCvfEY30JD9aU4q-1" vertex="1">
          <mxGeometry x="260" y="40" width="70" height="60" as="geometry" />
        </mxCell>
        <mxCell id="6z6u2LCvfEY30JD9aU4q-9" value="r2.2.0" style="shape=cube;whiteSpace=wrap;html=1;boundedLbl=1;backgroundOutline=1;darkOpacity=0.05;darkOpacity2=0.1;" parent="6z6u2LCvfEY30JD9aU4q-1" vertex="1">
          <mxGeometry x="210" y="40" width="70" height="60" as="geometry" />
        </mxCell>
        <mxCell id="6z6u2LCvfEY30JD9aU4q-10" value="r2.0.0" style="shape=cube;whiteSpace=wrap;html=1;boundedLbl=1;backgroundOutline=1;darkOpacity=0.05;darkOpacity2=0.1;" parent="6z6u2LCvfEY30JD9aU4q-1" vertex="1">
          <mxGeometry x="160" y="40" width="70" height="60" as="geometry" />
        </mxCell>
        <mxCell id="6z6u2LCvfEY30JD9aU4q-11" value="r3.0.0" style="shape=cube;whiteSpace=wrap;html=1;boundedLbl=1;backgroundOutline=1;darkOpacity=0.05;darkOpacity2=0.1;" parent="6z6u2LCvfEY30JD9aU4q-1" vertex="1">
          <mxGeometry x="160" width="70" height="60" as="geometry" />
        </mxCell>
        <mxCell id="6z6u2LCvfEY30JD9aU4q-12" value="Releases = proyectos" style="rounded=0;whiteSpace=wrap;html=1;" parent="6z6u2LCvfEY30JD9aU4q-1" vertex="1">
          <mxGeometry x="180" y="170" width="120" height="40" as="geometry" />
        </mxCell>
        <mxCell id="zjrekccC_--PjVNx3uR7-0" value="ciclo de vida de software" style="rounded=0;whiteSpace=wrap;html=1;" parent="6z6u2LCvfEY30JD9aU4q-1" vertex="1">
          <mxGeometry x="170" y="240" width="580" height="60" as="geometry" />
        </mxCell>
        <mxCell id="zjrekccC_--PjVNx3uR7-1" value="revision de los requerimienos" style="whiteSpace=wrap;html=1;aspect=fixed;" parent="6z6u2LCvfEY30JD9aU4q-1" vertex="1">
          <mxGeometry x="160" y="360" width="80" height="80" as="geometry" />
        </mxCell>
        <mxCell id="zjrekccC_--PjVNx3uR7-2" value="desarrollo" style="whiteSpace=wrap;html=1;aspect=fixed;" parent="6z6u2LCvfEY30JD9aU4q-1" vertex="1">
          <mxGeometry x="260" y="360" width="80" height="80" as="geometry" />
        </mxCell>
        <mxCell id="zjrekccC_--PjVNx3uR7-3" value="revision de codigo" style="whiteSpace=wrap;html=1;aspect=fixed;" parent="6z6u2LCvfEY30JD9aU4q-1" vertex="1">
          <mxGeometry x="360" y="360" width="80" height="80" as="geometry" />
        </mxCell>
        <mxCell id="zjrekccC_--PjVNx3uR7-4" value="&lt;br&gt;Control de Calidad&lt;br&gt;(pruebas funcionales y automatizacion)" style="whiteSpace=wrap;html=1;aspect=fixed;" parent="6z6u2LCvfEY30JD9aU4q-1" vertex="1">
          <mxGeometry x="460" y="360" width="90" height="90" as="geometry" />
        </mxCell>
        <mxCell id="zjrekccC_--PjVNx3uR7-5" value="Pruebas de Aceptacion de Usuario" style="whiteSpace=wrap;html=1;aspect=fixed;" parent="6z6u2LCvfEY30JD9aU4q-1" vertex="1">
          <mxGeometry x="560" y="360" width="80" height="80" as="geometry" />
        </mxCell>
        <mxCell id="zjrekccC_--PjVNx3uR7-6" value="Release" style="whiteSpace=wrap;html=1;aspect=fixed;" parent="6z6u2LCvfEY30JD9aU4q-1" vertex="1">
          <mxGeometry x="660" y="360" width="80" height="80" as="geometry" />
        </mxCell>
        <mxCell id="zjrekccC_--PjVNx3uR7-7" value="control" style="rounded=0;whiteSpace=wrap;html=1;fillColor=#fff2cc;strokeColor=#d6b656;" parent="6z6u2LCvfEY30JD9aU4q-1" vertex="1">
          <mxGeometry x="180" y="420" width="60" height="30" as="geometry" />
        </mxCell>
        <mxCell id="zjrekccC_--PjVNx3uR7-8" value="control" style="rounded=0;whiteSpace=wrap;html=1;fillColor=#fff2cc;strokeColor=#d6b656;" parent="6z6u2LCvfEY30JD9aU4q-1" vertex="1">
          <mxGeometry x="280" y="420" width="60" height="30" as="geometry" />
        </mxCell>
        <mxCell id="zjrekccC_--PjVNx3uR7-9" value="control" style="rounded=0;whiteSpace=wrap;html=1;fillColor=#fff2cc;strokeColor=#d6b656;" parent="6z6u2LCvfEY30JD9aU4q-1" vertex="1">
          <mxGeometry x="380" y="420" width="60" height="30" as="geometry" />
        </mxCell>
        <mxCell id="zjrekccC_--PjVNx3uR7-10" value="control" style="rounded=0;whiteSpace=wrap;html=1;fillColor=#fff2cc;strokeColor=#d6b656;" parent="6z6u2LCvfEY30JD9aU4q-1" vertex="1">
          <mxGeometry x="580" y="420" width="60" height="30" as="geometry" />
        </mxCell>
        <mxCell id="y6lY452FvMnBK0ukDONr-0" style="edgeStyle=orthogonalEdgeStyle;rounded=0;orthogonalLoop=1;jettySize=auto;html=1;" parent="6z6u2LCvfEY30JD9aU4q-1" source="zjrekccC_--PjVNx3uR7-11" edge="1">
          <mxGeometry relative="1" as="geometry">
            <mxPoint x="810" y="480" as="targetPoint" />
            <Array as="points">
              <mxPoint x="710" y="480" />
              <mxPoint x="810" y="480" />
            </Array>
          </mxGeometry>
        </mxCell>
        <mxCell id="zjrekccC_--PjVNx3uR7-11" value="control" style="rounded=0;whiteSpace=wrap;html=1;fillColor=#fff2cc;strokeColor=#d6b656;" parent="6z6u2LCvfEY30JD9aU4q-1" vertex="1">
          <mxGeometry x="680" y="420" width="60" height="30" as="geometry" />
        </mxCell>
        <mxCell id="zjrekccC_--PjVNx3uR7-12" value="requerimientos" style="shape=document;whiteSpace=wrap;html=1;boundedLbl=1;" parent="6z6u2LCvfEY30JD9aU4q-1" vertex="1">
          <mxGeometry x="760" y="360" width="100" height="40" as="geometry" />
        </mxCell>
        <mxCell id="zjrekccC_--PjVNx3uR7-13" value="requerimientos" style="shape=document;whiteSpace=wrap;html=1;boundedLbl=1;" parent="6z6u2LCvfEY30JD9aU4q-1" vertex="1">
          <mxGeometry x="770" y="370" width="100" height="40" as="geometry" />
        </mxCell>
        <mxCell id="zjrekccC_--PjVNx3uR7-14" value="requerimientos" style="shape=document;whiteSpace=wrap;html=1;boundedLbl=1;" parent="6z6u2LCvfEY30JD9aU4q-1" vertex="1">
          <mxGeometry x="780" y="385" width="100" height="40" as="geometry" />
        </mxCell>
        <mxCell id="zjrekccC_--PjVNx3uR7-15" value="requerimientos" style="shape=document;whiteSpace=wrap;html=1;boundedLbl=1;" parent="6z6u2LCvfEY30JD9aU4q-1" vertex="1">
          <mxGeometry x="790" y="400" width="100" height="40" as="geometry" />
        </mxCell>
        <mxCell id="zjrekccC_--PjVNx3uR7-16" value="PMBOK - GP" style="rounded=0;whiteSpace=wrap;html=1;fillColor=#dae8fc;strokeColor=#6c8ebf;" parent="6z6u2LCvfEY30JD9aU4q-1" vertex="1">
          <mxGeometry x="160" y="480" width="120" height="40" as="geometry" />
        </mxCell>
        <mxCell id="zjrekccC_--PjVNx3uR7-17" value="SPRING - GP" style="rounded=0;whiteSpace=wrap;html=1;" parent="6z6u2LCvfEY30JD9aU4q-1" vertex="1">
          <mxGeometry x="160" y="540" width="120" height="40" as="geometry" />
        </mxCell>
        <mxCell id="zjrekccC_--PjVNx3uR7-18" value="Marco de gestion de Proyectos" style="text;html=1;strokeColor=none;fillColor=none;align=center;verticalAlign=middle;whiteSpace=wrap;rounded=0;" parent="6z6u2LCvfEY30JD9aU4q-1" vertex="1">
          <mxGeometry x="330" y="520" width="40" height="20" as="geometry" />
        </mxCell>
        <mxCell id="zjrekccC_--PjVNx3uR7-19" value="Alcance" style="text;html=1;strokeColor=none;fillColor=none;align=center;verticalAlign=middle;whiteSpace=wrap;rounded=0;" parent="6z6u2LCvfEY30JD9aU4q-1" vertex="1">
          <mxGeometry x="430" y="490" width="40" height="20" as="geometry" />
        </mxCell>
        <mxCell id="zjrekccC_--PjVNx3uR7-20" value="Tiempo" style="text;html=1;strokeColor=none;fillColor=none;align=center;verticalAlign=middle;whiteSpace=wrap;rounded=0;" parent="6z6u2LCvfEY30JD9aU4q-1" vertex="1">
          <mxGeometry x="430" y="520" width="40" height="20" as="geometry" />
        </mxCell>
        <mxCell id="zjrekccC_--PjVNx3uR7-21" value="Recurso" style="text;html=1;strokeColor=none;fillColor=none;align=center;verticalAlign=middle;whiteSpace=wrap;rounded=0;" parent="6z6u2LCvfEY30JD9aU4q-1" vertex="1">
          <mxGeometry x="430" y="550" width="40" height="20" as="geometry" />
        </mxCell>
        <mxCell id="zjrekccC_--PjVNx3uR7-22" value="Requermientos" style="text;html=1;strokeColor=none;fillColor=none;align=center;verticalAlign=middle;whiteSpace=wrap;rounded=0;" parent="6z6u2LCvfEY30JD9aU4q-1" vertex="1">
          <mxGeometry x="510" y="490" width="40" height="20" as="geometry" />
        </mxCell>
        <mxCell id="zjrekccC_--PjVNx3uR7-23" value="Interesados" style="text;html=1;strokeColor=none;fillColor=none;align=center;verticalAlign=middle;whiteSpace=wrap;rounded=0;" parent="6z6u2LCvfEY30JD9aU4q-1" vertex="1">
          <mxGeometry x="510" y="520" width="40" height="20" as="geometry" />
        </mxCell>
        <mxCell id="zjrekccC_--PjVNx3uR7-24" value="Presupuesto" style="text;html=1;strokeColor=none;fillColor=none;align=center;verticalAlign=middle;whiteSpace=wrap;rounded=0;" parent="6z6u2LCvfEY30JD9aU4q-1" vertex="1">
          <mxGeometry x="510" y="550" width="40" height="20" as="geometry" />
        </mxCell>
        <mxCell id="zjrekccC_--PjVNx3uR7-25" value="Calidad" style="text;html=1;strokeColor=none;fillColor=none;align=center;verticalAlign=middle;whiteSpace=wrap;rounded=0;" parent="6z6u2LCvfEY30JD9aU4q-1" vertex="1">
          <mxGeometry x="600" y="490" width="40" height="20" as="geometry" />
        </mxCell>
        <mxCell id="LWDHowgpteixNVcWzc69-0" value="Plan de Gestion del Alcance" style="text;html=1;strokeColor=none;fillColor=none;align=center;verticalAlign=middle;whiteSpace=wrap;rounded=0;" parent="6z6u2LCvfEY30JD9aU4q-1" vertex="1">
          <mxGeometry x="630" y="520" width="140" height="20" as="geometry" />
        </mxCell>
        <mxCell id="LWDHowgpteixNVcWzc69-1" value="Plan Pruebas del Release" style="text;html=1;strokeColor=none;fillColor=none;align=center;verticalAlign=middle;whiteSpace=wrap;rounded=0;" parent="6z6u2LCvfEY30JD9aU4q-1" vertex="1">
          <mxGeometry x="780" y="520" width="140" height="20" as="geometry" />
        </mxCell>
        <mxCell id="VnUYp5XX_kSnR3Etwz8C-0" value="Casos de Pruebas (Steps | Data)" style="text;html=1;strokeColor=none;fillColor=none;align=center;verticalAlign=middle;whiteSpace=wrap;rounded=0;" parent="6z6u2LCvfEY30JD9aU4q-1" vertex="1">
          <mxGeometry x="837" y="560" width="193" height="20" as="geometry" />
        </mxCell>
        <mxCell id="VnUYp5XX_kSnR3Etwz8C-1" value="Ejecuciones Casos de Pruebas" style="text;html=1;strokeColor=none;fillColor=none;align=center;verticalAlign=middle;whiteSpace=wrap;rounded=0;" parent="6z6u2LCvfEY30JD9aU4q-1" vertex="1">
          <mxGeometry x="837" y="590" width="193" height="20" as="geometry" />
        </mxCell>
        <mxCell id="VnUYp5XX_kSnR3Etwz8C-2" value="Reune las Evidencias para la conformidad" style="text;html=1;strokeColor=none;fillColor=none;align=center;verticalAlign=middle;whiteSpace=wrap;rounded=0;" parent="6z6u2LCvfEY30JD9aU4q-1" vertex="1">
          <mxGeometry x="837" y="630" width="193" height="20" as="geometry" />
        </mxCell>
        <mxCell id="VnUYp5XX_kSnR3Etwz8C-3" value="Varios Ciclos de Prueba" style="text;html=1;strokeColor=none;fillColor=none;align=center;verticalAlign=middle;whiteSpace=wrap;rounded=0;" parent="6z6u2LCvfEY30JD9aU4q-1" vertex="1">
          <mxGeometry x="827" y="670" width="193" height="20" as="geometry" />
        </mxCell>
        <mxCell id="VnUYp5XX_kSnR3Etwz8C-4" value="Herramientas" style="text;html=1;strokeColor=none;fillColor=none;align=center;verticalAlign=middle;whiteSpace=wrap;rounded=0;" parent="6z6u2LCvfEY30JD9aU4q-1" vertex="1">
          <mxGeometry x="620" y="575" width="140" height="20" as="geometry" />
        </mxCell>
        <mxCell id="VnUYp5XX_kSnR3Etwz8C-5" value="Cuello Botella Pruebas" style="text;html=1;strokeColor=none;fillColor=none;align=center;verticalAlign=middle;whiteSpace=wrap;rounded=0;" parent="6z6u2LCvfEY30JD9aU4q-1" vertex="1">
          <mxGeometry x="670" y="610" width="140" height="20" as="geometry" />
        </mxCell>
        <mxCell id="VnUYp5XX_kSnR3Etwz8C-6" value="Control Flow" style="text;html=1;strokeColor=none;fillColor=none;align=center;verticalAlign=middle;whiteSpace=wrap;rounded=0;" parent="6z6u2LCvfEY30JD9aU4q-1" vertex="1">
          <mxGeometry x="650" y="640" width="140" height="20" as="geometry" />
        </mxCell>
        <mxCell id="VnUYp5XX_kSnR3Etwz8C-7" value="Pareto" style="text;html=1;strokeColor=none;fillColor=none;align=center;verticalAlign=middle;whiteSpace=wrap;rounded=0;" parent="6z6u2LCvfEY30JD9aU4q-1" vertex="1">
          <mxGeometry x="650" y="670" width="140" height="20" as="geometry" />
        </mxCell>
        <mxCell id="G4T1_VvfGeWw2ESha8pF-0" value="&lt;span data-lucid-type=&quot;application/vnd.lucid.text&quot; data-lucid-content=&quot;{&amp;#34;t&amp;#34;:&amp;#34;Calidad (Control y Aseguramiento)\n1 inteligo + (2 SAB, 1 ODI, 1 WEB *, 1 BIZAGI *)\nPruebas Funcionales\n   Plan de Pruebas\n      Test Case\n      Preparacion de Data en Ambientes\n      Execution\n      Recolectar Evidancias (Result)\n      Reportar defectos\n   Biblioteca de Pruebas\n   Indicadores (Coverturas) (*)\nPruebas de Automatizacion (*)\n   Codificacion de las Automatizacion\n   Preparacion de Data en Ambientes\n   Execucion\n   Recolectar Evidancias\nPruebas de Stress (Opcional)\nAseguramiento de la calidad (Procesos) (*)\n  Revision y cumplimiento de la informacion en las historias\n  Revision y cumplimiento de dessarrollo control de versiones, sonar, sonarlint, dependencias \n  Cordinacion entre el equipo QA (2 SAB, 1 ODI) (*)\n  UAT presentacion de ciclo de pruebas\n  Revision de los entregables para despliegue de enlatado en un repositorio de componentesCD&amp;#34;,&amp;#34;m&amp;#34;:[{&amp;#34;s&amp;#34;:0,&amp;#34;n&amp;#34;:&amp;#34;a&amp;#34;,&amp;#34;v&amp;#34;:&amp;#34;left&amp;#34;},{&amp;#34;s&amp;#34;:34,&amp;#34;n&amp;#34;:&amp;#34;a&amp;#34;,&amp;#34;v&amp;#34;:&amp;#34;left&amp;#34;},{&amp;#34;s&amp;#34;:83,&amp;#34;n&amp;#34;:&amp;#34;a&amp;#34;,&amp;#34;v&amp;#34;:&amp;#34;left&amp;#34;},{&amp;#34;s&amp;#34;:103,&amp;#34;n&amp;#34;:&amp;#34;a&amp;#34;,&amp;#34;v&amp;#34;:&amp;#34;left&amp;#34;},{&amp;#34;s&amp;#34;:122,&amp;#34;n&amp;#34;:&amp;#34;a&amp;#34;,&amp;#34;v&amp;#34;:&amp;#34;left&amp;#34;},{&amp;#34;s&amp;#34;:138,&amp;#34;n&amp;#34;:&amp;#34;a&amp;#34;,&amp;#34;v&amp;#34;:&amp;#34;left&amp;#34;},{&amp;#34;s&amp;#34;:177,&amp;#34;n&amp;#34;:&amp;#34;a&amp;#34;,&amp;#34;v&amp;#34;:&amp;#34;left&amp;#34;},{&amp;#34;s&amp;#34;:193,&amp;#34;n&amp;#34;:&amp;#34;a&amp;#34;,&amp;#34;v&amp;#34;:&amp;#34;left&amp;#34;},{&amp;#34;s&amp;#34;:230,&amp;#34;n&amp;#34;:&amp;#34;a&amp;#34;,&amp;#34;v&amp;#34;:&amp;#34;left&amp;#34;},{&amp;#34;s&amp;#34;:254,&amp;#34;n&amp;#34;:&amp;#34;a&amp;#34;,&amp;#34;v&amp;#34;:&amp;#34;left&amp;#34;},{&amp;#34;s&amp;#34;:279,&amp;#34;n&amp;#34;:&amp;#34;a&amp;#34;,&amp;#34;v&amp;#34;:&amp;#34;left&amp;#34;},{&amp;#34;s&amp;#34;:311,&amp;#34;n&amp;#34;:&amp;#34;a&amp;#34;,&amp;#34;v&amp;#34;:&amp;#34;left&amp;#34;},{&amp;#34;s&amp;#34;:341,&amp;#34;n&amp;#34;:&amp;#34;a&amp;#34;,&amp;#34;v&amp;#34;:&amp;#34;left&amp;#34;},{&amp;#34;s&amp;#34;:379,&amp;#34;n&amp;#34;:&amp;#34;a&amp;#34;,&amp;#34;v&amp;#34;:&amp;#34;left&amp;#34;},{&amp;#34;s&amp;#34;:415,&amp;#34;n&amp;#34;:&amp;#34;a&amp;#34;,&amp;#34;v&amp;#34;:&amp;#34;left&amp;#34;},{&amp;#34;s&amp;#34;:428,&amp;#34;n&amp;#34;:&amp;#34;a&amp;#34;,&amp;#34;v&amp;#34;:&amp;#34;left&amp;#34;},{&amp;#34;s&amp;#34;:453,&amp;#34;n&amp;#34;:&amp;#34;a&amp;#34;,&amp;#34;v&amp;#34;:&amp;#34;left&amp;#34;},{&amp;#34;s&amp;#34;:482,&amp;#34;n&amp;#34;:&amp;#34;a&amp;#34;,&amp;#34;v&amp;#34;:&amp;#34;left&amp;#34;},{&amp;#34;s&amp;#34;:525,&amp;#34;n&amp;#34;:&amp;#34;a&amp;#34;,&amp;#34;v&amp;#34;:&amp;#34;left&amp;#34;},{&amp;#34;s&amp;#34;:586,&amp;#34;n&amp;#34;:&amp;#34;a&amp;#34;,&amp;#34;v&amp;#34;:&amp;#34;left&amp;#34;},{&amp;#34;s&amp;#34;:681,&amp;#34;n&amp;#34;:&amp;#34;a&amp;#34;,&amp;#34;v&amp;#34;:&amp;#34;left&amp;#34;},{&amp;#34;s&amp;#34;:733,&amp;#34;n&amp;#34;:&amp;#34;a&amp;#34;,&amp;#34;v&amp;#34;:&amp;#34;left&amp;#34;},{&amp;#34;s&amp;#34;:772,&amp;#34;n&amp;#34;:&amp;#34;a&amp;#34;,&amp;#34;v&amp;#34;:&amp;#34;left&amp;#34;}]}&quot;&gt;&lt;span&gt;Calidad (Control y Aseguramiento)&lt;br&gt;Control de Calidad&lt;br&gt;&lt;/span&gt;&lt;/span&gt;&lt;blockquote style=&quot;margin: 0 0 0 40px ; border: none ; padding: 0px&quot;&gt;&lt;span data-lucid-type=&quot;application/vnd.lucid.text&quot; data-lucid-content=&quot;{&amp;#34;t&amp;#34;:&amp;#34;Calidad (Control y Aseguramiento)\n1 inteligo + (2 SAB, 1 ODI, 1 WEB *, 1 BIZAGI *)\nPruebas Funcionales\n   Plan de Pruebas\n      Test Case\n      Preparacion de Data en Ambientes\n      Execution\n      Recolectar Evidancias (Result)\n      Reportar defectos\n   Biblioteca de Pruebas\n   Indicadores (Coverturas) (*)\nPruebas de Automatizacion (*)\n   Codificacion de las Automatizacion\n   Preparacion de Data en Ambientes\n   Execucion\n   Recolectar Evidancias\nPruebas de Stress (Opcional)\nAseguramiento de la calidad (Procesos) (*)\n  Revision y cumplimiento de la informacion en las historias\n  Revision y cumplimiento de dessarrollo control de versiones, sonar, sonarlint, dependencias \n  Cordinacion entre el equipo QA (2 SAB, 1 ODI) (*)\n  UAT presentacion de ciclo de pruebas\n  Revision de los entregables para despliegue de enlatado en un repositorio de componentesCD&amp;#34;,&amp;#34;m&amp;#34;:[{&amp;#34;s&amp;#34;:0,&amp;#34;n&amp;#34;:&amp;#34;a&amp;#34;,&amp;#34;v&amp;#34;:&amp;#34;left&amp;#34;},{&amp;#34;s&amp;#34;:34,&amp;#34;n&amp;#34;:&amp;#34;a&amp;#34;,&amp;#34;v&amp;#34;:&amp;#34;left&amp;#34;},{&amp;#34;s&amp;#34;:83,&amp;#34;n&amp;#34;:&amp;#34;a&amp;#34;,&amp;#34;v&amp;#34;:&amp;#34;left&amp;#34;},{&amp;#34;s&amp;#34;:103,&amp;#34;n&amp;#34;:&amp;#34;a&amp;#34;,&amp;#34;v&amp;#34;:&amp;#34;left&amp;#34;},{&amp;#34;s&amp;#34;:122,&amp;#34;n&amp;#34;:&amp;#34;a&amp;#34;,&amp;#34;v&amp;#34;:&amp;#34;left&amp;#34;},{&amp;#34;s&amp;#34;:138,&amp;#34;n&amp;#34;:&amp;#34;a&amp;#34;,&amp;#34;v&amp;#34;:&amp;#34;left&amp;#34;},{&amp;#34;s&amp;#34;:177,&amp;#34;n&amp;#34;:&amp;#34;a&amp;#34;,&amp;#34;v&amp;#34;:&amp;#34;left&amp;#34;},{&amp;#34;s&amp;#34;:193,&amp;#34;n&amp;#34;:&amp;#34;a&amp;#34;,&amp;#34;v&amp;#34;:&amp;#34;left&amp;#34;},{&amp;#34;s&amp;#34;:230,&amp;#34;n&amp;#34;:&amp;#34;a&amp;#34;,&amp;#34;v&amp;#34;:&amp;#34;left&amp;#34;},{&amp;#34;s&amp;#34;:254,&amp;#34;n&amp;#34;:&amp;#34;a&amp;#34;,&amp;#34;v&amp;#34;:&amp;#34;left&amp;#34;},{&amp;#34;s&amp;#34;:279,&amp;#34;n&amp;#34;:&amp;#34;a&amp;#34;,&amp;#34;v&amp;#34;:&amp;#34;left&amp;#34;},{&amp;#34;s&amp;#34;:311,&amp;#34;n&amp;#34;:&amp;#34;a&amp;#34;,&amp;#34;v&amp;#34;:&amp;#34;left&amp;#34;},{&amp;#34;s&amp;#34;:341,&amp;#34;n&amp;#34;:&amp;#34;a&amp;#34;,&amp;#34;v&amp;#34;:&amp;#34;left&amp;#34;},{&amp;#34;s&amp;#34;:379,&amp;#34;n&amp;#34;:&amp;#34;a&amp;#34;,&amp;#34;v&amp;#34;:&amp;#34;left&amp;#34;},{&amp;#34;s&amp;#34;:415,&amp;#34;n&amp;#34;:&amp;#34;a&amp;#34;,&amp;#34;v&amp;#34;:&amp;#34;left&amp;#34;},{&amp;#34;s&amp;#34;:428,&amp;#34;n&amp;#34;:&amp;#34;a&amp;#34;,&amp;#34;v&amp;#34;:&amp;#34;left&amp;#34;},{&amp;#34;s&amp;#34;:453,&amp;#34;n&amp;#34;:&amp;#34;a&amp;#34;,&amp;#34;v&amp;#34;:&amp;#34;left&amp;#34;},{&amp;#34;s&amp;#34;:482,&amp;#34;n&amp;#34;:&amp;#34;a&amp;#34;,&amp;#34;v&amp;#34;:&amp;#34;left&amp;#34;},{&amp;#34;s&amp;#34;:525,&amp;#34;n&amp;#34;:&amp;#34;a&amp;#34;,&amp;#34;v&amp;#34;:&amp;#34;left&amp;#34;},{&amp;#34;s&amp;#34;:586,&amp;#34;n&amp;#34;:&amp;#34;a&amp;#34;,&amp;#34;v&amp;#34;:&amp;#34;left&amp;#34;},{&amp;#34;s&amp;#34;:681,&amp;#34;n&amp;#34;:&amp;#34;a&amp;#34;,&amp;#34;v&amp;#34;:&amp;#34;left&amp;#34;},{&amp;#34;s&amp;#34;:733,&amp;#34;n&amp;#34;:&amp;#34;a&amp;#34;,&amp;#34;v&amp;#34;:&amp;#34;left&amp;#34;},{&amp;#34;s&amp;#34;:772,&amp;#34;n&amp;#34;:&amp;#34;a&amp;#34;,&amp;#34;v&amp;#34;:&amp;#34;left&amp;#34;}]}&quot;&gt;&lt;span&gt;Pruebas Funcionales (manual)&lt;/span&gt;&lt;/span&gt;&lt;blockquote style=&quot;margin: 0 0 0 40px ; border: none ; padding: 0px&quot;&gt;&lt;span data-lucid-type=&quot;application/vnd.lucid.text&quot; data-lucid-content=&quot;{&amp;#34;t&amp;#34;:&amp;#34;Calidad (Control y Aseguramiento)\n1 inteligo + (2 SAB, 1 ODI, 1 WEB *, 1 BIZAGI *)\nPruebas Funcionales\n   Plan de Pruebas\n      Test Case\n      Preparacion de Data en Ambientes\n      Execution\n      Recolectar Evidancias (Result)\n      Reportar defectos\n   Biblioteca de Pruebas\n   Indicadores (Coverturas) (*)\nPruebas de Automatizacion (*)\n   Codificacion de las Automatizacion\n   Preparacion de Data en Ambientes\n   Execucion\n   Recolectar Evidancias\nPruebas de Stress (Opcional)\nAseguramiento de la calidad (Procesos) (*)\n  Revision y cumplimiento de la informacion en las historias\n  Revision y cumplimiento de dessarrollo control de versiones, sonar, sonarlint, dependencias \n  Cordinacion entre el equipo QA (2 SAB, 1 ODI) (*)\n  UAT presentacion de ciclo de pruebas\n  Revision de los entregables para despliegue de enlatado en un repositorio de componentesCD&amp;#34;,&amp;#34;m&amp;#34;:[{&amp;#34;s&amp;#34;:0,&amp;#34;n&amp;#34;:&amp;#34;a&amp;#34;,&amp;#34;v&amp;#34;:&amp;#34;left&amp;#34;},{&amp;#34;s&amp;#34;:34,&amp;#34;n&amp;#34;:&amp;#34;a&amp;#34;,&amp;#34;v&amp;#34;:&amp;#34;left&amp;#34;},{&amp;#34;s&amp;#34;:83,&amp;#34;n&amp;#34;:&amp;#34;a&amp;#34;,&amp;#34;v&amp;#34;:&amp;#34;left&amp;#34;},{&amp;#34;s&amp;#34;:103,&amp;#34;n&amp;#34;:&amp;#34;a&amp;#34;,&amp;#34;v&amp;#34;:&amp;#34;left&amp;#34;},{&amp;#34;s&amp;#34;:122,&amp;#34;n&amp;#34;:&amp;#34;a&amp;#34;,&amp;#34;v&amp;#34;:&amp;#34;left&amp;#34;},{&amp;#34;s&amp;#34;:138,&amp;#34;n&amp;#34;:&amp;#34;a&amp;#34;,&amp;#34;v&amp;#34;:&amp;#34;left&amp;#34;},{&amp;#34;s&amp;#34;:177,&amp;#34;n&amp;#34;:&amp;#34;a&amp;#34;,&amp;#34;v&amp;#34;:&amp;#34;left&amp;#34;},{&amp;#34;s&amp;#34;:193,&amp;#34;n&amp;#34;:&amp;#34;a&amp;#34;,&amp;#34;v&amp;#34;:&amp;#34;left&amp;#34;},{&amp;#34;s&amp;#34;:230,&amp;#34;n&amp;#34;:&amp;#34;a&amp;#34;,&amp;#34;v&amp;#34;:&amp;#34;left&amp;#34;},{&amp;#34;s&amp;#34;:254,&amp;#34;n&amp;#34;:&amp;#34;a&amp;#34;,&amp;#34;v&amp;#34;:&amp;#34;left&amp;#34;},{&amp;#34;s&amp;#34;:279,&amp;#34;n&amp;#34;:&amp;#34;a&amp;#34;,&amp;#34;v&amp;#34;:&amp;#34;left&amp;#34;},{&amp;#34;s&amp;#34;:311,&amp;#34;n&amp;#34;:&amp;#34;a&amp;#34;,&amp;#34;v&amp;#34;:&amp;#34;left&amp;#34;},{&amp;#34;s&amp;#34;:341,&amp;#34;n&amp;#34;:&amp;#34;a&amp;#34;,&amp;#34;v&amp;#34;:&amp;#34;left&amp;#34;},{&amp;#34;s&amp;#34;:379,&amp;#34;n&amp;#34;:&amp;#34;a&amp;#34;,&amp;#34;v&amp;#34;:&amp;#34;left&amp;#34;},{&amp;#34;s&amp;#34;:415,&amp;#34;n&amp;#34;:&amp;#34;a&amp;#34;,&amp;#34;v&amp;#34;:&amp;#34;left&amp;#34;},{&amp;#34;s&amp;#34;:428,&amp;#34;n&amp;#34;:&amp;#34;a&amp;#34;,&amp;#34;v&amp;#34;:&amp;#34;left&amp;#34;},{&amp;#34;s&amp;#34;:453,&amp;#34;n&amp;#34;:&amp;#34;a&amp;#34;,&amp;#34;v&amp;#34;:&amp;#34;left&amp;#34;},{&amp;#34;s&amp;#34;:482,&amp;#34;n&amp;#34;:&amp;#34;a&amp;#34;,&amp;#34;v&amp;#34;:&amp;#34;left&amp;#34;},{&amp;#34;s&amp;#34;:525,&amp;#34;n&amp;#34;:&amp;#34;a&amp;#34;,&amp;#34;v&amp;#34;:&amp;#34;left&amp;#34;},{&amp;#34;s&amp;#34;:586,&amp;#34;n&amp;#34;:&amp;#34;a&amp;#34;,&amp;#34;v&amp;#34;:&amp;#34;left&amp;#34;},{&amp;#34;s&amp;#34;:681,&amp;#34;n&amp;#34;:&amp;#34;a&amp;#34;,&amp;#34;v&amp;#34;:&amp;#34;left&amp;#34;},{&amp;#34;s&amp;#34;:733,&amp;#34;n&amp;#34;:&amp;#34;a&amp;#34;,&amp;#34;v&amp;#34;:&amp;#34;left&amp;#34;},{&amp;#34;s&amp;#34;:772,&amp;#34;n&amp;#34;:&amp;#34;a&amp;#34;,&amp;#34;v&amp;#34;:&amp;#34;left&amp;#34;}]}&quot;&gt;&lt;span&gt;   Plan de Pruebas&lt;/span&gt;&lt;/span&gt;&lt;/blockquote&gt;&lt;blockquote style=&quot;margin: 0 0 0 40px ; border: none ; padding: 0px&quot;&gt;&lt;blockquote style=&quot;margin: 0 0 0 40px ; border: none ; padding: 0px&quot;&gt;&lt;span data-lucid-type=&quot;application/vnd.lucid.text&quot; data-lucid-content=&quot;{&amp;#34;t&amp;#34;:&amp;#34;Calidad (Control y Aseguramiento)\n1 inteligo + (2 SAB, 1 ODI, 1 WEB *, 1 BIZAGI *)\nPruebas Funcionales\n   Plan de Pruebas\n      Test Case\n      Preparacion de Data en Ambientes\n      Execution\n      Recolectar Evidancias (Result)\n      Reportar defectos\n   Biblioteca de Pruebas\n   Indicadores (Coverturas) (*)\nPruebas de Automatizacion (*)\n   Codificacion de las Automatizacion\n   Preparacion de Data en Ambientes\n   Execucion\n   Recolectar Evidancias\nPruebas de Stress (Opcional)\nAseguramiento de la calidad (Procesos) (*)\n  Revision y cumplimiento de la informacion en las historias\n  Revision y cumplimiento de dessarrollo control de versiones, sonar, sonarlint, dependencias \n  Cordinacion entre el equipo QA (2 SAB, 1 ODI) (*)\n  UAT presentacion de ciclo de pruebas\n  Revision de los entregables para despliegue de enlatado en un repositorio de componentesCD&amp;#34;,&amp;#34;m&amp;#34;:[{&amp;#34;s&amp;#34;:0,&amp;#34;n&amp;#34;:&amp;#34;a&amp;#34;,&amp;#34;v&amp;#34;:&amp;#34;left&amp;#34;},{&amp;#34;s&amp;#34;:34,&amp;#34;n&amp;#34;:&amp;#34;a&amp;#34;,&amp;#34;v&amp;#34;:&amp;#34;left&amp;#34;},{&amp;#34;s&amp;#34;:83,&amp;#34;n&amp;#34;:&amp;#34;a&amp;#34;,&amp;#34;v&amp;#34;:&amp;#34;left&amp;#34;},{&amp;#34;s&amp;#34;:103,&amp;#34;n&amp;#34;:&amp;#34;a&amp;#34;,&amp;#34;v&amp;#34;:&amp;#34;left&amp;#34;},{&amp;#34;s&amp;#34;:122,&amp;#34;n&amp;#34;:&amp;#34;a&amp;#34;,&amp;#34;v&amp;#34;:&amp;#34;left&amp;#34;},{&amp;#34;s&amp;#34;:138,&amp;#34;n&amp;#34;:&amp;#34;a&amp;#34;,&amp;#34;v&amp;#34;:&amp;#34;left&amp;#34;},{&amp;#34;s&amp;#34;:177,&amp;#34;n&amp;#34;:&amp;#34;a&amp;#34;,&amp;#34;v&amp;#34;:&amp;#34;left&amp;#34;},{&amp;#34;s&amp;#34;:193,&amp;#34;n&amp;#34;:&amp;#34;a&amp;#34;,&amp;#34;v&amp;#34;:&amp;#34;left&amp;#34;},{&amp;#34;s&amp;#34;:230,&amp;#34;n&amp;#34;:&amp;#34;a&amp;#34;,&amp;#34;v&amp;#34;:&amp;#34;left&amp;#34;},{&amp;#34;s&amp;#34;:254,&amp;#34;n&amp;#34;:&amp;#34;a&amp;#34;,&amp;#34;v&amp;#34;:&amp;#34;left&amp;#34;},{&amp;#34;s&amp;#34;:279,&amp;#34;n&amp;#34;:&amp;#34;a&amp;#34;,&amp;#34;v&amp;#34;:&amp;#34;left&amp;#34;},{&amp;#34;s&amp;#34;:311,&amp;#34;n&amp;#34;:&amp;#34;a&amp;#34;,&amp;#34;v&amp;#34;:&amp;#34;left&amp;#34;},{&amp;#34;s&amp;#34;:341,&amp;#34;n&amp;#34;:&amp;#34;a&amp;#34;,&amp;#34;v&amp;#34;:&amp;#34;left&amp;#34;},{&amp;#34;s&amp;#34;:379,&amp;#34;n&amp;#34;:&amp;#34;a&amp;#34;,&amp;#34;v&amp;#34;:&amp;#34;left&amp;#34;},{&amp;#34;s&amp;#34;:415,&amp;#34;n&amp;#34;:&amp;#34;a&amp;#34;,&amp;#34;v&amp;#34;:&amp;#34;left&amp;#34;},{&amp;#34;s&amp;#34;:428,&amp;#34;n&amp;#34;:&amp;#34;a&amp;#34;,&amp;#34;v&amp;#34;:&amp;#34;left&amp;#34;},{&amp;#34;s&amp;#34;:453,&amp;#34;n&amp;#34;:&amp;#34;a&amp;#34;,&amp;#34;v&amp;#34;:&amp;#34;left&amp;#34;},{&amp;#34;s&amp;#34;:482,&amp;#34;n&amp;#34;:&amp;#34;a&amp;#34;,&amp;#34;v&amp;#34;:&amp;#34;left&amp;#34;},{&amp;#34;s&amp;#34;:525,&amp;#34;n&amp;#34;:&amp;#34;a&amp;#34;,&amp;#34;v&amp;#34;:&amp;#34;left&amp;#34;},{&amp;#34;s&amp;#34;:586,&amp;#34;n&amp;#34;:&amp;#34;a&amp;#34;,&amp;#34;v&amp;#34;:&amp;#34;left&amp;#34;},{&amp;#34;s&amp;#34;:681,&amp;#34;n&amp;#34;:&amp;#34;a&amp;#34;,&amp;#34;v&amp;#34;:&amp;#34;left&amp;#34;},{&amp;#34;s&amp;#34;:733,&amp;#34;n&amp;#34;:&amp;#34;a&amp;#34;,&amp;#34;v&amp;#34;:&amp;#34;left&amp;#34;},{&amp;#34;s&amp;#34;:772,&amp;#34;n&amp;#34;:&amp;#34;a&amp;#34;,&amp;#34;v&amp;#34;:&amp;#34;left&amp;#34;}]}&quot;&gt;&lt;span&gt;      Test Case&lt;/span&gt;&lt;/span&gt;&lt;/blockquote&gt;&lt;/blockquote&gt;&lt;blockquote style=&quot;margin: 0 0 0 40px ; border: none ; padding: 0px&quot;&gt;&lt;blockquote style=&quot;margin: 0 0 0 40px ; border: none ; padding: 0px&quot;&gt;&lt;span data-lucid-type=&quot;application/vnd.lucid.text&quot; data-lucid-content=&quot;{&amp;#34;t&amp;#34;:&amp;#34;Calidad (Control y Aseguramiento)\n1 inteligo + (2 SAB, 1 ODI, 1 WEB *, 1 BIZAGI *)\nPruebas Funcionales\n   Plan de Pruebas\n      Test Case\n      Preparacion de Data en Ambientes\n      Execution\n      Recolectar Evidancias (Result)\n      Reportar defectos\n   Biblioteca de Pruebas\n   Indicadores (Coverturas) (*)\nPruebas de Automatizacion (*)\n   Codificacion de las Automatizacion\n   Preparacion de Data en Ambientes\n   Execucion\n   Recolectar Evidancias\nPruebas de Stress (Opcional)\nAseguramiento de la calidad (Procesos) (*)\n  Revision y cumplimiento de la informacion en las historias\n  Revision y cumplimiento de dessarrollo control de versiones, sonar, sonarlint, dependencias \n  Cordinacion entre el equipo QA (2 SAB, 1 ODI) (*)\n  UAT presentacion de ciclo de pruebas\n  Revision de los entregables para despliegue de enlatado en un repositorio de componentesCD&amp;#34;,&amp;#34;m&amp;#34;:[{&amp;#34;s&amp;#34;:0,&amp;#34;n&amp;#34;:&amp;#34;a&amp;#34;,&amp;#34;v&amp;#34;:&amp;#34;left&amp;#34;},{&amp;#34;s&amp;#34;:34,&amp;#34;n&amp;#34;:&amp;#34;a&amp;#34;,&amp;#34;v&amp;#34;:&amp;#34;left&amp;#34;},{&amp;#34;s&amp;#34;:83,&amp;#34;n&amp;#34;:&amp;#34;a&amp;#34;,&amp;#34;v&amp;#34;:&amp;#34;left&amp;#34;},{&amp;#34;s&amp;#34;:103,&amp;#34;n&amp;#34;:&amp;#34;a&amp;#34;,&amp;#34;v&amp;#34;:&amp;#34;left&amp;#34;},{&amp;#34;s&amp;#34;:122,&amp;#34;n&amp;#34;:&amp;#34;a&amp;#34;,&amp;#34;v&amp;#34;:&amp;#34;left&amp;#34;},{&amp;#34;s&amp;#34;:138,&amp;#34;n&amp;#34;:&amp;#34;a&amp;#34;,&amp;#34;v&amp;#34;:&amp;#34;left&amp;#34;},{&amp;#34;s&amp;#34;:177,&amp;#34;n&amp;#34;:&amp;#34;a&amp;#34;,&amp;#34;v&amp;#34;:&amp;#34;left&amp;#34;},{&amp;#34;s&amp;#34;:193,&amp;#34;n&amp;#34;:&amp;#34;a&amp;#34;,&amp;#34;v&amp;#34;:&amp;#34;left&amp;#34;},{&amp;#34;s&amp;#34;:230,&amp;#34;n&amp;#34;:&amp;#34;a&amp;#34;,&amp;#34;v&amp;#34;:&amp;#34;left&amp;#34;},{&amp;#34;s&amp;#34;:254,&amp;#34;n&amp;#34;:&amp;#34;a&amp;#34;,&amp;#34;v&amp;#34;:&amp;#34;left&amp;#34;},{&amp;#34;s&amp;#34;:279,&amp;#34;n&amp;#34;:&amp;#34;a&amp;#34;,&amp;#34;v&amp;#34;:&amp;#34;left&amp;#34;},{&amp;#34;s&amp;#34;:311,&amp;#34;n&amp;#34;:&amp;#34;a&amp;#34;,&amp;#34;v&amp;#34;:&amp;#34;left&amp;#34;},{&amp;#34;s&amp;#34;:341,&amp;#34;n&amp;#34;:&amp;#34;a&amp;#34;,&amp;#34;v&amp;#34;:&amp;#34;left&amp;#34;},{&amp;#34;s&amp;#34;:379,&amp;#34;n&amp;#34;:&amp;#34;a&amp;#34;,&amp;#34;v&amp;#34;:&amp;#34;left&amp;#34;},{&amp;#34;s&amp;#34;:415,&amp;#34;n&amp;#34;:&amp;#34;a&amp;#34;,&amp;#34;v&amp;#34;:&amp;#34;left&amp;#34;},{&amp;#34;s&amp;#34;:428,&amp;#34;n&amp;#34;:&amp;#34;a&amp;#34;,&amp;#34;v&amp;#34;:&amp;#34;left&amp;#34;},{&amp;#34;s&amp;#34;:453,&amp;#34;n&amp;#34;:&amp;#34;a&amp;#34;,&amp;#34;v&amp;#34;:&amp;#34;left&amp;#34;},{&amp;#34;s&amp;#34;:482,&amp;#34;n&amp;#34;:&amp;#34;a&amp;#34;,&amp;#34;v&amp;#34;:&amp;#34;left&amp;#34;},{&amp;#34;s&amp;#34;:525,&amp;#34;n&amp;#34;:&amp;#34;a&amp;#34;,&amp;#34;v&amp;#34;:&amp;#34;left&amp;#34;},{&amp;#34;s&amp;#34;:586,&amp;#34;n&amp;#34;:&amp;#34;a&amp;#34;,&amp;#34;v&amp;#34;:&amp;#34;left&amp;#34;},{&amp;#34;s&amp;#34;:681,&amp;#34;n&amp;#34;:&amp;#34;a&amp;#34;,&amp;#34;v&amp;#34;:&amp;#34;left&amp;#34;},{&amp;#34;s&amp;#34;:733,&amp;#34;n&amp;#34;:&amp;#34;a&amp;#34;,&amp;#34;v&amp;#34;:&amp;#34;left&amp;#34;},{&amp;#34;s&amp;#34;:772,&amp;#34;n&amp;#34;:&amp;#34;a&amp;#34;,&amp;#34;v&amp;#34;:&amp;#34;left&amp;#34;}]}&quot;&gt;&lt;span&gt;      Preparacion de Data en Ambientes&lt;/span&gt;&lt;/span&gt;&lt;/blockquote&gt;&lt;/blockquote&gt;&lt;blockquote style=&quot;margin: 0 0 0 40px ; border: none ; padding: 0px&quot;&gt;&lt;blockquote style=&quot;margin: 0 0 0 40px ; border: none ; padding: 0px&quot;&gt;&lt;span data-lucid-type=&quot;application/vnd.lucid.text&quot; data-lucid-content=&quot;{&amp;#34;t&amp;#34;:&amp;#34;Calidad (Control y Aseguramiento)\n1 inteligo + (2 SAB, 1 ODI, 1 WEB *, 1 BIZAGI *)\nPruebas Funcionales\n   Plan de Pruebas\n      Test Case\n      Preparacion de Data en Ambientes\n      Execution\n      Recolectar Evidancias (Result)\n      Reportar defectos\n   Biblioteca de Pruebas\n   Indicadores (Coverturas) (*)\nPruebas de Automatizacion (*)\n   Codificacion de las Automatizacion\n   Preparacion de Data en Ambientes\n   Execucion\n   Recolectar Evidancias\nPruebas de Stress (Opcional)\nAseguramiento de la calidad (Procesos) (*)\n  Revision y cumplimiento de la informacion en las historias\n  Revision y cumplimiento de dessarrollo control de versiones, sonar, sonarlint, dependencias \n  Cordinacion entre el equipo QA (2 SAB, 1 ODI) (*)\n  UAT presentacion de ciclo de pruebas\n  Revision de los entregables para despliegue de enlatado en un repositorio de componentesCD&amp;#34;,&amp;#34;m&amp;#34;:[{&amp;#34;s&amp;#34;:0,&amp;#34;n&amp;#34;:&amp;#34;a&amp;#34;,&amp;#34;v&amp;#34;:&amp;#34;left&amp;#34;},{&amp;#34;s&amp;#34;:34,&amp;#34;n&amp;#34;:&amp;#34;a&amp;#34;,&amp;#34;v&amp;#34;:&amp;#34;left&amp;#34;},{&amp;#34;s&amp;#34;:83,&amp;#34;n&amp;#34;:&amp;#34;a&amp;#34;,&amp;#34;v&amp;#34;:&amp;#34;left&amp;#34;},{&amp;#34;s&amp;#34;:103,&amp;#34;n&amp;#34;:&amp;#34;a&amp;#34;,&amp;#34;v&amp;#34;:&amp;#34;left&amp;#34;},{&amp;#34;s&amp;#34;:122,&amp;#34;n&amp;#34;:&amp;#34;a&amp;#34;,&amp;#34;v&amp;#34;:&amp;#34;left&amp;#34;},{&amp;#34;s&amp;#34;:138,&amp;#34;n&amp;#34;:&amp;#34;a&amp;#34;,&amp;#34;v&amp;#34;:&amp;#34;left&amp;#34;},{&amp;#34;s&amp;#34;:177,&amp;#34;n&amp;#34;:&amp;#34;a&amp;#34;,&amp;#34;v&amp;#34;:&amp;#34;left&amp;#34;},{&amp;#34;s&amp;#34;:193,&amp;#34;n&amp;#34;:&amp;#34;a&amp;#34;,&amp;#34;v&amp;#34;:&amp;#34;left&amp;#34;},{&amp;#34;s&amp;#34;:230,&amp;#34;n&amp;#34;:&amp;#34;a&amp;#34;,&amp;#34;v&amp;#34;:&amp;#34;left&amp;#34;},{&amp;#34;s&amp;#34;:254,&amp;#34;n&amp;#34;:&amp;#34;a&amp;#34;,&amp;#34;v&amp;#34;:&amp;#34;left&amp;#34;},{&amp;#34;s&amp;#34;:279,&amp;#34;n&amp;#34;:&amp;#34;a&amp;#34;,&amp;#34;v&amp;#34;:&amp;#34;left&amp;#34;},{&amp;#34;s&amp;#34;:311,&amp;#34;n&amp;#34;:&amp;#34;a&amp;#34;,&amp;#34;v&amp;#34;:&amp;#34;left&amp;#34;},{&amp;#34;s&amp;#34;:341,&amp;#34;n&amp;#34;:&amp;#34;a&amp;#34;,&amp;#34;v&amp;#34;:&amp;#34;left&amp;#34;},{&amp;#34;s&amp;#34;:379,&amp;#34;n&amp;#34;:&amp;#34;a&amp;#34;,&amp;#34;v&amp;#34;:&amp;#34;left&amp;#34;},{&amp;#34;s&amp;#34;:415,&amp;#34;n&amp;#34;:&amp;#34;a&amp;#34;,&amp;#34;v&amp;#34;:&amp;#34;left&amp;#34;},{&amp;#34;s&amp;#34;:428,&amp;#34;n&amp;#34;:&amp;#34;a&amp;#34;,&amp;#34;v&amp;#34;:&amp;#34;left&amp;#34;},{&amp;#34;s&amp;#34;:453,&amp;#34;n&amp;#34;:&amp;#34;a&amp;#34;,&amp;#34;v&amp;#34;:&amp;#34;left&amp;#34;},{&amp;#34;s&amp;#34;:482,&amp;#34;n&amp;#34;:&amp;#34;a&amp;#34;,&amp;#34;v&amp;#34;:&amp;#34;left&amp;#34;},{&amp;#34;s&amp;#34;:525,&amp;#34;n&amp;#34;:&amp;#34;a&amp;#34;,&amp;#34;v&amp;#34;:&amp;#34;left&amp;#34;},{&amp;#34;s&amp;#34;:586,&amp;#34;n&amp;#34;:&amp;#34;a&amp;#34;,&amp;#34;v&amp;#34;:&amp;#34;left&amp;#34;},{&amp;#34;s&amp;#34;:681,&amp;#34;n&amp;#34;:&amp;#34;a&amp;#34;,&amp;#34;v&amp;#34;:&amp;#34;left&amp;#34;},{&amp;#34;s&amp;#34;:733,&amp;#34;n&amp;#34;:&amp;#34;a&amp;#34;,&amp;#34;v&amp;#34;:&amp;#34;left&amp;#34;},{&amp;#34;s&amp;#34;:772,&amp;#34;n&amp;#34;:&amp;#34;a&amp;#34;,&amp;#34;v&amp;#34;:&amp;#34;left&amp;#34;}]}&quot;&gt;&lt;span&gt;      Execution&lt;/span&gt;&lt;/span&gt;&lt;/blockquote&gt;&lt;/blockquote&gt;&lt;blockquote style=&quot;margin: 0 0 0 40px ; border: none ; padding: 0px&quot;&gt;&lt;blockquote style=&quot;margin: 0 0 0 40px ; border: none ; padding: 0px&quot;&gt;&lt;span data-lucid-type=&quot;application/vnd.lucid.text&quot; data-lucid-content=&quot;{&amp;#34;t&amp;#34;:&amp;#34;Calidad (Control y Aseguramiento)\n1 inteligo + (2 SAB, 1 ODI, 1 WEB *, 1 BIZAGI *)\nPruebas Funcionales\n   Plan de Pruebas\n      Test Case\n      Preparacion de Data en Ambientes\n      Execution\n      Recolectar Evidancias (Result)\n      Reportar defectos\n   Biblioteca de Pruebas\n   Indicadores (Coverturas) (*)\nPruebas de Automatizacion (*)\n   Codificacion de las Automatizacion\n   Preparacion de Data en Ambientes\n   Execucion\n   Recolectar Evidancias\nPruebas de Stress (Opcional)\nAseguramiento de la calidad (Procesos) (*)\n  Revision y cumplimiento de la informacion en las historias\n  Revision y cumplimiento de dessarrollo control de versiones, sonar, sonarlint, dependencias \n  Cordinacion entre el equipo QA (2 SAB, 1 ODI) (*)\n  UAT presentacion de ciclo de pruebas\n  Revision de los entregables para despliegue de enlatado en un repositorio de componentesCD&amp;#34;,&amp;#34;m&amp;#34;:[{&amp;#34;s&amp;#34;:0,&amp;#34;n&amp;#34;:&amp;#34;a&amp;#34;,&amp;#34;v&amp;#34;:&amp;#34;left&amp;#34;},{&amp;#34;s&amp;#34;:34,&amp;#34;n&amp;#34;:&amp;#34;a&amp;#34;,&amp;#34;v&amp;#34;:&amp;#34;left&amp;#34;},{&amp;#34;s&amp;#34;:83,&amp;#34;n&amp;#34;:&amp;#34;a&amp;#34;,&amp;#34;v&amp;#34;:&amp;#34;left&amp;#34;},{&amp;#34;s&amp;#34;:103,&amp;#34;n&amp;#34;:&amp;#34;a&amp;#34;,&amp;#34;v&amp;#34;:&amp;#34;left&amp;#34;},{&amp;#34;s&amp;#34;:122,&amp;#34;n&amp;#34;:&amp;#34;a&amp;#34;,&amp;#34;v&amp;#34;:&amp;#34;left&amp;#34;},{&amp;#34;s&amp;#34;:138,&amp;#34;n&amp;#34;:&amp;#34;a&amp;#34;,&amp;#34;v&amp;#34;:&amp;#34;left&amp;#34;},{&amp;#34;s&amp;#34;:177,&amp;#34;n&amp;#34;:&amp;#34;a&amp;#34;,&amp;#34;v&amp;#34;:&amp;#34;left&amp;#34;},{&amp;#34;s&amp;#34;:193,&amp;#34;n&amp;#34;:&amp;#34;a&amp;#34;,&amp;#34;v&amp;#34;:&amp;#34;left&amp;#34;},{&amp;#34;s&amp;#34;:230,&amp;#34;n&amp;#34;:&amp;#34;a&amp;#34;,&amp;#34;v&amp;#34;:&amp;#34;left&amp;#34;},{&amp;#34;s&amp;#34;:254,&amp;#34;n&amp;#34;:&amp;#34;a&amp;#34;,&amp;#34;v&amp;#34;:&amp;#34;left&amp;#34;},{&amp;#34;s&amp;#34;:279,&amp;#34;n&amp;#34;:&amp;#34;a&amp;#34;,&amp;#34;v&amp;#34;:&amp;#34;left&amp;#34;},{&amp;#34;s&amp;#34;:311,&amp;#34;n&amp;#34;:&amp;#34;a&amp;#34;,&amp;#34;v&amp;#34;:&amp;#34;left&amp;#34;},{&amp;#34;s&amp;#34;:341,&amp;#34;n&amp;#34;:&amp;#34;a&amp;#34;,&amp;#34;v&amp;#34;:&amp;#34;left&amp;#34;},{&amp;#34;s&amp;#34;:379,&amp;#34;n&amp;#34;:&amp;#34;a&amp;#34;,&amp;#34;v&amp;#34;:&amp;#34;left&amp;#34;},{&amp;#34;s&amp;#34;:415,&amp;#34;n&amp;#34;:&amp;#34;a&amp;#34;,&amp;#34;v&amp;#34;:&amp;#34;left&amp;#34;},{&amp;#34;s&amp;#34;:428,&amp;#34;n&amp;#34;:&amp;#34;a&amp;#34;,&amp;#34;v&amp;#34;:&amp;#34;left&amp;#34;},{&amp;#34;s&amp;#34;:453,&amp;#34;n&amp;#34;:&amp;#34;a&amp;#34;,&amp;#34;v&amp;#34;:&amp;#34;left&amp;#34;},{&amp;#34;s&amp;#34;:482,&amp;#34;n&amp;#34;:&amp;#34;a&amp;#34;,&amp;#34;v&amp;#34;:&amp;#34;left&amp;#34;},{&amp;#34;s&amp;#34;:525,&amp;#34;n&amp;#34;:&amp;#34;a&amp;#34;,&amp;#34;v&amp;#34;:&amp;#34;left&amp;#34;},{&amp;#34;s&amp;#34;:586,&amp;#34;n&amp;#34;:&amp;#34;a&amp;#34;,&amp;#34;v&amp;#34;:&amp;#34;left&amp;#34;},{&amp;#34;s&amp;#34;:681,&amp;#34;n&amp;#34;:&amp;#34;a&amp;#34;,&amp;#34;v&amp;#34;:&amp;#34;left&amp;#34;},{&amp;#34;s&amp;#34;:733,&amp;#34;n&amp;#34;:&amp;#34;a&amp;#34;,&amp;#34;v&amp;#34;:&amp;#34;left&amp;#34;},{&amp;#34;s&amp;#34;:772,&amp;#34;n&amp;#34;:&amp;#34;a&amp;#34;,&amp;#34;v&amp;#34;:&amp;#34;left&amp;#34;}]}&quot;&gt;&lt;span&gt;      Recolectar Evidancias (Result)&lt;/span&gt;&lt;/span&gt;&lt;/blockquote&gt;&lt;/blockquote&gt;&lt;blockquote style=&quot;margin: 0 0 0 40px ; border: none ; padding: 0px&quot;&gt;&lt;blockquote style=&quot;margin: 0 0 0 40px ; border: none ; padding: 0px&quot;&gt;&lt;span data-lucid-type=&quot;application/vnd.lucid.text&quot; data-lucid-content=&quot;{&amp;#34;t&amp;#34;:&amp;#34;Calidad (Control y Aseguramiento)\n1 inteligo + (2 SAB, 1 ODI, 1 WEB *, 1 BIZAGI *)\nPruebas Funcionales\n   Plan de Pruebas\n      Test Case\n      Preparacion de Data en Ambientes\n      Execution\n      Recolectar Evidancias (Result)\n      Reportar defectos\n   Biblioteca de Pruebas\n   Indicadores (Coverturas) (*)\nPruebas de Automatizacion (*)\n   Codificacion de las Automatizacion\n   Preparacion de Data en Ambientes\n   Execucion\n   Recolectar Evidancias\nPruebas de Stress (Opcional)\nAseguramiento de la calidad (Procesos) (*)\n  Revision y cumplimiento de la informacion en las historias\n  Revision y cumplimiento de dessarrollo control de versiones, sonar, sonarlint, dependencias \n  Cordinacion entre el equipo QA (2 SAB, 1 ODI) (*)\n  UAT presentacion de ciclo de pruebas\n  Revision de los entregables para despliegue de enlatado en un repositorio de componentesCD&amp;#34;,&amp;#34;m&amp;#34;:[{&amp;#34;s&amp;#34;:0,&amp;#34;n&amp;#34;:&amp;#34;a&amp;#34;,&amp;#34;v&amp;#34;:&amp;#34;left&amp;#34;},{&amp;#34;s&amp;#34;:34,&amp;#34;n&amp;#34;:&amp;#34;a&amp;#34;,&amp;#34;v&amp;#34;:&amp;#34;left&amp;#34;},{&amp;#34;s&amp;#34;:83,&amp;#34;n&amp;#34;:&amp;#34;a&amp;#34;,&amp;#34;v&amp;#34;:&amp;#34;left&amp;#34;},{&amp;#34;s&amp;#34;:103,&amp;#34;n&amp;#34;:&amp;#34;a&amp;#34;,&amp;#34;v&amp;#34;:&amp;#34;left&amp;#34;},{&amp;#34;s&amp;#34;:122,&amp;#34;n&amp;#34;:&amp;#34;a&amp;#34;,&amp;#34;v&amp;#34;:&amp;#34;left&amp;#34;},{&amp;#34;s&amp;#34;:138,&amp;#34;n&amp;#34;:&amp;#34;a&amp;#34;,&amp;#34;v&amp;#34;:&amp;#34;left&amp;#34;},{&amp;#34;s&amp;#34;:177,&amp;#34;n&amp;#34;:&amp;#34;a&amp;#34;,&amp;#34;v&amp;#34;:&amp;#34;left&amp;#34;},{&amp;#34;s&amp;#34;:193,&amp;#34;n&amp;#34;:&amp;#34;a&amp;#34;,&amp;#34;v&amp;#34;:&amp;#34;left&amp;#34;},{&amp;#34;s&amp;#34;:230,&amp;#34;n&amp;#34;:&amp;#34;a&amp;#34;,&amp;#34;v&amp;#34;:&amp;#34;left&amp;#34;},{&amp;#34;s&amp;#34;:254,&amp;#34;n&amp;#34;:&amp;#34;a&amp;#34;,&amp;#34;v&amp;#34;:&amp;#34;left&amp;#34;},{&amp;#34;s&amp;#34;:279,&amp;#34;n&amp;#34;:&amp;#34;a&amp;#34;,&amp;#34;v&amp;#34;:&amp;#34;left&amp;#34;},{&amp;#34;s&amp;#34;:311,&amp;#34;n&amp;#34;:&amp;#34;a&amp;#34;,&amp;#34;v&amp;#34;:&amp;#34;left&amp;#34;},{&amp;#34;s&amp;#34;:341,&amp;#34;n&amp;#34;:&amp;#34;a&amp;#34;,&amp;#34;v&amp;#34;:&amp;#34;left&amp;#34;},{&amp;#34;s&amp;#34;:379,&amp;#34;n&amp;#34;:&amp;#34;a&amp;#34;,&amp;#34;v&amp;#34;:&amp;#34;left&amp;#34;},{&amp;#34;s&amp;#34;:415,&amp;#34;n&amp;#34;:&amp;#34;a&amp;#34;,&amp;#34;v&amp;#34;:&amp;#34;left&amp;#34;},{&amp;#34;s&amp;#34;:428,&amp;#34;n&amp;#34;:&amp;#34;a&amp;#34;,&amp;#34;v&amp;#34;:&amp;#34;left&amp;#34;},{&amp;#34;s&amp;#34;:453,&amp;#34;n&amp;#34;:&amp;#34;a&amp;#34;,&amp;#34;v&amp;#34;:&amp;#34;left&amp;#34;},{&amp;#34;s&amp;#34;:482,&amp;#34;n&amp;#34;:&amp;#34;a&amp;#34;,&amp;#34;v&amp;#34;:&amp;#34;left&amp;#34;},{&amp;#34;s&amp;#34;:525,&amp;#34;n&amp;#34;:&amp;#34;a&amp;#34;,&amp;#34;v&amp;#34;:&amp;#34;left&amp;#34;},{&amp;#34;s&amp;#34;:586,&amp;#34;n&amp;#34;:&amp;#34;a&amp;#34;,&amp;#34;v&amp;#34;:&amp;#34;left&amp;#34;},{&amp;#34;s&amp;#34;:681,&amp;#34;n&amp;#34;:&amp;#34;a&amp;#34;,&amp;#34;v&amp;#34;:&amp;#34;left&amp;#34;},{&amp;#34;s&amp;#34;:733,&amp;#34;n&amp;#34;:&amp;#34;a&amp;#34;,&amp;#34;v&amp;#34;:&amp;#34;left&amp;#34;},{&amp;#34;s&amp;#34;:772,&amp;#34;n&amp;#34;:&amp;#34;a&amp;#34;,&amp;#34;v&amp;#34;:&amp;#34;left&amp;#34;}]}&quot;&gt;&lt;span&gt;      Reportar defectos&lt;/span&gt;&lt;/span&gt;&lt;/blockquote&gt;&lt;/blockquote&gt;&lt;blockquote style=&quot;margin: 0 0 0 40px ; border: none ; padding: 0px&quot;&gt;&lt;blockquote style=&quot;margin: 0 0 0 40px ; border: none ; padding: 0px&quot;&gt;&lt;span data-lucid-type=&quot;application/vnd.lucid.text&quot; data-lucid-content=&quot;{&amp;#34;t&amp;#34;:&amp;#34;Calidad (Control y Aseguramiento)\n1 inteligo + (2 SAB, 1 ODI, 1 WEB *, 1 BIZAGI *)\nPruebas Funcionales\n   Plan de Pruebas\n      Test Case\n      Preparacion de Data en Ambientes\n      Execution\n      Recolectar Evidancias (Result)\n      Reportar defectos\n   Biblioteca de Pruebas\n   Indicadores (Coverturas) (*)\nPruebas de Automatizacion (*)\n   Codificacion de las Automatizacion\n   Preparacion de Data en Ambientes\n   Execucion\n   Recolectar Evidancias\nPruebas de Stress (Opcional)\nAseguramiento de la calidad (Procesos) (*)\n  Revision y cumplimiento de la informacion en las historias\n  Revision y cumplimiento de dessarrollo control de versiones, sonar, sonarlint, dependencias \n  Cordinacion entre el equipo QA (2 SAB, 1 ODI) (*)\n  UAT presentacion de ciclo de pruebas\n  Revision de los entregables para despliegue de enlatado en un repositorio de componentesCD&amp;#34;,&amp;#34;m&amp;#34;:[{&amp;#34;s&amp;#34;:0,&amp;#34;n&amp;#34;:&amp;#34;a&amp;#34;,&amp;#34;v&amp;#34;:&amp;#34;left&amp;#34;},{&amp;#34;s&amp;#34;:34,&amp;#34;n&amp;#34;:&amp;#34;a&amp;#34;,&amp;#34;v&amp;#34;:&amp;#34;left&amp;#34;},{&amp;#34;s&amp;#34;:83,&amp;#34;n&amp;#34;:&amp;#34;a&amp;#34;,&amp;#34;v&amp;#34;:&amp;#34;left&amp;#34;},{&amp;#34;s&amp;#34;:103,&amp;#34;n&amp;#34;:&amp;#34;a&amp;#34;,&amp;#34;v&amp;#34;:&amp;#34;left&amp;#34;},{&amp;#34;s&amp;#34;:122,&amp;#34;n&amp;#34;:&amp;#34;a&amp;#34;,&amp;#34;v&amp;#34;:&amp;#34;left&amp;#34;},{&amp;#34;s&amp;#34;:138,&amp;#34;n&amp;#34;:&amp;#34;a&amp;#34;,&amp;#34;v&amp;#34;:&amp;#34;left&amp;#34;},{&amp;#34;s&amp;#34;:177,&amp;#34;n&amp;#34;:&amp;#34;a&amp;#34;,&amp;#34;v&amp;#34;:&amp;#34;left&amp;#34;},{&amp;#34;s&amp;#34;:193,&amp;#34;n&amp;#34;:&amp;#34;a&amp;#34;,&amp;#34;v&amp;#34;:&amp;#34;left&amp;#34;},{&amp;#34;s&amp;#34;:230,&amp;#34;n&amp;#34;:&amp;#34;a&amp;#34;,&amp;#34;v&amp;#34;:&amp;#34;left&amp;#34;},{&amp;#34;s&amp;#34;:254,&amp;#34;n&amp;#34;:&amp;#34;a&amp;#34;,&amp;#34;v&amp;#34;:&amp;#34;left&amp;#34;},{&amp;#34;s&amp;#34;:279,&amp;#34;n&amp;#34;:&amp;#34;a&amp;#34;,&amp;#34;v&amp;#34;:&amp;#34;left&amp;#34;},{&amp;#34;s&amp;#34;:311,&amp;#34;n&amp;#34;:&amp;#34;a&amp;#34;,&amp;#34;v&amp;#34;:&amp;#34;left&amp;#34;},{&amp;#34;s&amp;#34;:341,&amp;#34;n&amp;#34;:&amp;#34;a&amp;#34;,&amp;#34;v&amp;#34;:&amp;#34;left&amp;#34;},{&amp;#34;s&amp;#34;:379,&amp;#34;n&amp;#34;:&amp;#34;a&amp;#34;,&amp;#34;v&amp;#34;:&amp;#34;left&amp;#34;},{&amp;#34;s&amp;#34;:415,&amp;#34;n&amp;#34;:&amp;#34;a&amp;#34;,&amp;#34;v&amp;#34;:&amp;#34;left&amp;#34;},{&amp;#34;s&amp;#34;:428,&amp;#34;n&amp;#34;:&amp;#34;a&amp;#34;,&amp;#34;v&amp;#34;:&amp;#34;left&amp;#34;},{&amp;#34;s&amp;#34;:453,&amp;#34;n&amp;#34;:&amp;#34;a&amp;#34;,&amp;#34;v&amp;#34;:&amp;#34;left&amp;#34;},{&amp;#34;s&amp;#34;:482,&amp;#34;n&amp;#34;:&amp;#34;a&amp;#34;,&amp;#34;v&amp;#34;:&amp;#34;left&amp;#34;},{&amp;#34;s&amp;#34;:525,&amp;#34;n&amp;#34;:&amp;#34;a&amp;#34;,&amp;#34;v&amp;#34;:&amp;#34;left&amp;#34;},{&amp;#34;s&amp;#34;:586,&amp;#34;n&amp;#34;:&amp;#34;a&amp;#34;,&amp;#34;v&amp;#34;:&amp;#34;left&amp;#34;},{&amp;#34;s&amp;#34;:681,&amp;#34;n&amp;#34;:&amp;#34;a&amp;#34;,&amp;#34;v&amp;#34;:&amp;#34;left&amp;#34;},{&amp;#34;s&amp;#34;:733,&amp;#34;n&amp;#34;:&amp;#34;a&amp;#34;,&amp;#34;v&amp;#34;:&amp;#34;left&amp;#34;},{&amp;#34;s&amp;#34;:772,&amp;#34;n&amp;#34;:&amp;#34;a&amp;#34;,&amp;#34;v&amp;#34;:&amp;#34;left&amp;#34;}]}&quot;&gt;&lt;span&gt;   Biblioteca de Pruebas&lt;/span&gt;&lt;/span&gt;&lt;/blockquote&gt;&lt;/blockquote&gt;&lt;blockquote style=&quot;margin: 0 0 0 40px ; border: none ; padding: 0px&quot;&gt;&lt;blockquote style=&quot;margin: 0 0 0 40px ; border: none ; padding: 0px&quot;&gt;&lt;span data-lucid-type=&quot;application/vnd.lucid.text&quot; data-lucid-content=&quot;{&amp;#34;t&amp;#34;:&amp;#34;Calidad (Control y Aseguramiento)\n1 inteligo + (2 SAB, 1 ODI, 1 WEB *, 1 BIZAGI *)\nPruebas Funcionales\n   Plan de Pruebas\n      Test Case\n      Preparacion de Data en Ambientes\n      Execution\n      Recolectar Evidancias (Result)\n      Reportar defectos\n   Biblioteca de Pruebas\n   Indicadores (Coverturas) (*)\nPruebas de Automatizacion (*)\n   Codificacion de las Automatizacion\n   Preparacion de Data en Ambientes\n   Execucion\n   Recolectar Evidancias\nPruebas de Stress (Opcional)\nAseguramiento de la calidad (Procesos) (*)\n  Revision y cumplimiento de la informacion en las historias\n  Revision y cumplimiento de dessarrollo control de versiones, sonar, sonarlint, dependencias \n  Cordinacion entre el equipo QA (2 SAB, 1 ODI) (*)\n  UAT presentacion de ciclo de pruebas\n  Revision de los entregables para despliegue de enlatado en un repositorio de componentesCD&amp;#34;,&amp;#34;m&amp;#34;:[{&amp;#34;s&amp;#34;:0,&amp;#34;n&amp;#34;:&amp;#34;a&amp;#34;,&amp;#34;v&amp;#34;:&amp;#34;left&amp;#34;},{&amp;#34;s&amp;#34;:34,&amp;#34;n&amp;#34;:&amp;#34;a&amp;#34;,&amp;#34;v&amp;#34;:&amp;#34;left&amp;#34;},{&amp;#34;s&amp;#34;:83,&amp;#34;n&amp;#34;:&amp;#34;a&amp;#34;,&amp;#34;v&amp;#34;:&amp;#34;left&amp;#34;},{&amp;#34;s&amp;#34;:103,&amp;#34;n&amp;#34;:&amp;#34;a&amp;#34;,&amp;#34;v&amp;#34;:&amp;#34;left&amp;#34;},{&amp;#34;s&amp;#34;:122,&amp;#34;n&amp;#34;:&amp;#34;a&amp;#34;,&amp;#34;v&amp;#34;:&amp;#34;left&amp;#34;},{&amp;#34;s&amp;#34;:138,&amp;#34;n&amp;#34;:&amp;#34;a&amp;#34;,&amp;#34;v&amp;#34;:&amp;#34;left&amp;#34;},{&amp;#34;s&amp;#34;:177,&amp;#34;n&amp;#34;:&amp;#34;a&amp;#34;,&amp;#34;v&amp;#34;:&amp;#34;left&amp;#34;},{&amp;#34;s&amp;#34;:193,&amp;#34;n&amp;#34;:&amp;#34;a&amp;#34;,&amp;#34;v&amp;#34;:&amp;#34;left&amp;#34;},{&amp;#34;s&amp;#34;:230,&amp;#34;n&amp;#34;:&amp;#34;a&amp;#34;,&amp;#34;v&amp;#34;:&amp;#34;left&amp;#34;},{&amp;#34;s&amp;#34;:254,&amp;#34;n&amp;#34;:&amp;#34;a&amp;#34;,&amp;#34;v&amp;#34;:&amp;#34;left&amp;#34;},{&amp;#34;s&amp;#34;:279,&amp;#34;n&amp;#34;:&amp;#34;a&amp;#34;,&amp;#34;v&amp;#34;:&amp;#34;left&amp;#34;},{&amp;#34;s&amp;#34;:311,&amp;#34;n&amp;#34;:&amp;#34;a&amp;#34;,&amp;#34;v&amp;#34;:&amp;#34;left&amp;#34;},{&amp;#34;s&amp;#34;:341,&amp;#34;n&amp;#34;:&amp;#34;a&amp;#34;,&amp;#34;v&amp;#34;:&amp;#34;left&amp;#34;},{&amp;#34;s&amp;#34;:379,&amp;#34;n&amp;#34;:&amp;#34;a&amp;#34;,&amp;#34;v&amp;#34;:&amp;#34;left&amp;#34;},{&amp;#34;s&amp;#34;:415,&amp;#34;n&amp;#34;:&amp;#34;a&amp;#34;,&amp;#34;v&amp;#34;:&amp;#34;left&amp;#34;},{&amp;#34;s&amp;#34;:428,&amp;#34;n&amp;#34;:&amp;#34;a&amp;#34;,&amp;#34;v&amp;#34;:&amp;#34;left&amp;#34;},{&amp;#34;s&amp;#34;:453,&amp;#34;n&amp;#34;:&amp;#34;a&amp;#34;,&amp;#34;v&amp;#34;:&amp;#34;left&amp;#34;},{&amp;#34;s&amp;#34;:482,&amp;#34;n&amp;#34;:&amp;#34;a&amp;#34;,&amp;#34;v&amp;#34;:&amp;#34;left&amp;#34;},{&amp;#34;s&amp;#34;:525,&amp;#34;n&amp;#34;:&amp;#34;a&amp;#34;,&amp;#34;v&amp;#34;:&amp;#34;left&amp;#34;},{&amp;#34;s&amp;#34;:586,&amp;#34;n&amp;#34;:&amp;#34;a&amp;#34;,&amp;#34;v&amp;#34;:&amp;#34;left&amp;#34;},{&amp;#34;s&amp;#34;:681,&amp;#34;n&amp;#34;:&amp;#34;a&amp;#34;,&amp;#34;v&amp;#34;:&amp;#34;left&amp;#34;},{&amp;#34;s&amp;#34;:733,&amp;#34;n&amp;#34;:&amp;#34;a&amp;#34;,&amp;#34;v&amp;#34;:&amp;#34;left&amp;#34;},{&amp;#34;s&amp;#34;:772,&amp;#34;n&amp;#34;:&amp;#34;a&amp;#34;,&amp;#34;v&amp;#34;:&amp;#34;left&amp;#34;}]}&quot;&gt;&lt;span&gt;   Indicadores (Coverturas) (*)&lt;/span&gt;&lt;/span&gt;&lt;/blockquote&gt;&lt;/blockquote&gt;&lt;span data-lucid-type=&quot;application/vnd.lucid.text&quot; data-lucid-content=&quot;{&amp;#34;t&amp;#34;:&amp;#34;Calidad (Control y Aseguramiento)\n1 inteligo + (2 SAB, 1 ODI, 1 WEB *, 1 BIZAGI *)\nPruebas Funcionales\n   Plan de Pruebas\n      Test Case\n      Preparacion de Data en Ambientes\n      Execution\n      Recolectar Evidancias (Result)\n      Reportar defectos\n   Biblioteca de Pruebas\n   Indicadores (Coverturas) (*)\nPruebas de Automatizacion (*)\n   Codificacion de las Automatizacion\n   Preparacion de Data en Ambientes\n   Execucion\n   Recolectar Evidancias\nPruebas de Stress (Opcional)\nAseguramiento de la calidad (Procesos) (*)\n  Revision y cumplimiento de la informacion en las historias\n  Revision y cumplimiento de dessarrollo control de versiones, sonar, sonarlint, dependencias \n  Cordinacion entre el equipo QA (2 SAB, 1 ODI) (*)\n  UAT presentacion de ciclo de pruebas\n  Revision de los entregables para despliegue de enlatado en un repositorio de componentesCD&amp;#34;,&amp;#34;m&amp;#34;:[{&amp;#34;s&amp;#34;:0,&amp;#34;n&amp;#34;:&amp;#34;a&amp;#34;,&amp;#34;v&amp;#34;:&amp;#34;left&amp;#34;},{&amp;#34;s&amp;#34;:34,&amp;#34;n&amp;#34;:&amp;#34;a&amp;#34;,&amp;#34;v&amp;#34;:&amp;#34;left&amp;#34;},{&amp;#34;s&amp;#34;:83,&amp;#34;n&amp;#34;:&amp;#34;a&amp;#34;,&amp;#34;v&amp;#34;:&amp;#34;left&amp;#34;},{&amp;#34;s&amp;#34;:103,&amp;#34;n&amp;#34;:&amp;#34;a&amp;#34;,&amp;#34;v&amp;#34;:&amp;#34;left&amp;#34;},{&amp;#34;s&amp;#34;:122,&amp;#34;n&amp;#34;:&amp;#34;a&amp;#34;,&amp;#34;v&amp;#34;:&amp;#34;left&amp;#34;},{&amp;#34;s&amp;#34;:138,&amp;#34;n&amp;#34;:&amp;#34;a&amp;#34;,&amp;#34;v&amp;#34;:&amp;#34;left&amp;#34;},{&amp;#34;s&amp;#34;:177,&amp;#34;n&amp;#34;:&amp;#34;a&amp;#34;,&amp;#34;v&amp;#34;:&amp;#34;left&amp;#34;},{&amp;#34;s&amp;#34;:193,&amp;#34;n&amp;#34;:&amp;#34;a&amp;#34;,&amp;#34;v&amp;#34;:&amp;#34;left&amp;#34;},{&amp;#34;s&amp;#34;:230,&amp;#34;n&amp;#34;:&amp;#34;a&amp;#34;,&amp;#34;v&amp;#34;:&amp;#34;left&amp;#34;},{&amp;#34;s&amp;#34;:254,&amp;#34;n&amp;#34;:&amp;#34;a&amp;#34;,&amp;#34;v&amp;#34;:&amp;#34;left&amp;#34;},{&amp;#34;s&amp;#34;:279,&amp;#34;n&amp;#34;:&amp;#34;a&amp;#34;,&amp;#34;v&amp;#34;:&amp;#34;left&amp;#34;},{&amp;#34;s&amp;#34;:311,&amp;#34;n&amp;#34;:&amp;#34;a&amp;#34;,&amp;#34;v&amp;#34;:&amp;#34;left&amp;#34;},{&amp;#34;s&amp;#34;:341,&amp;#34;n&amp;#34;:&amp;#34;a&amp;#34;,&amp;#34;v&amp;#34;:&amp;#34;left&amp;#34;},{&amp;#34;s&amp;#34;:379,&amp;#34;n&amp;#34;:&amp;#34;a&amp;#34;,&amp;#34;v&amp;#34;:&amp;#34;left&amp;#34;},{&amp;#34;s&amp;#34;:415,&amp;#34;n&amp;#34;:&amp;#34;a&amp;#34;,&amp;#34;v&amp;#34;:&amp;#34;left&amp;#34;},{&amp;#34;s&amp;#34;:428,&amp;#34;n&amp;#34;:&amp;#34;a&amp;#34;,&amp;#34;v&amp;#34;:&amp;#34;left&amp;#34;},{&amp;#34;s&amp;#34;:453,&amp;#34;n&amp;#34;:&amp;#34;a&amp;#34;,&amp;#34;v&amp;#34;:&amp;#34;left&amp;#34;},{&amp;#34;s&amp;#34;:482,&amp;#34;n&amp;#34;:&amp;#34;a&amp;#34;,&amp;#34;v&amp;#34;:&amp;#34;left&amp;#34;},{&amp;#34;s&amp;#34;:525,&amp;#34;n&amp;#34;:&amp;#34;a&amp;#34;,&amp;#34;v&amp;#34;:&amp;#34;left&amp;#34;},{&amp;#34;s&amp;#34;:586,&amp;#34;n&amp;#34;:&amp;#34;a&amp;#34;,&amp;#34;v&amp;#34;:&amp;#34;left&amp;#34;},{&amp;#34;s&amp;#34;:681,&amp;#34;n&amp;#34;:&amp;#34;a&amp;#34;,&amp;#34;v&amp;#34;:&amp;#34;left&amp;#34;},{&amp;#34;s&amp;#34;:733,&amp;#34;n&amp;#34;:&amp;#34;a&amp;#34;,&amp;#34;v&amp;#34;:&amp;#34;left&amp;#34;},{&amp;#34;s&amp;#34;:772,&amp;#34;n&amp;#34;:&amp;#34;a&amp;#34;,&amp;#34;v&amp;#34;:&amp;#34;left&amp;#34;}]}&quot;&gt;&lt;span&gt;Pruebas de Automatizacion (*)&lt;/span&gt;&lt;/span&gt;&lt;blockquote style=&quot;margin: 0 0 0 40px ; border: none ; padding: 0px&quot;&gt;&lt;span data-lucid-type=&quot;application/vnd.lucid.text&quot; data-lucid-content=&quot;{&amp;#34;t&amp;#34;:&amp;#34;Calidad (Control y Aseguramiento)\n1 inteligo + (2 SAB, 1 ODI, 1 WEB *, 1 BIZAGI *)\nPruebas Funcionales\n   Plan de Pruebas\n      Test Case\n      Preparacion de Data en Ambientes\n      Execution\n      Recolectar Evidancias (Result)\n      Reportar defectos\n   Biblioteca de Pruebas\n   Indicadores (Coverturas) (*)\nPruebas de Automatizacion (*)\n   Codificacion de las Automatizacion\n   Preparacion de Data en Ambientes\n   Execucion\n   Recolectar Evidancias\nPruebas de Stress (Opcional)\nAseguramiento de la calidad (Procesos) (*)\n  Revision y cumplimiento de la informacion en las historias\n  Revision y cumplimiento de dessarrollo control de versiones, sonar, sonarlint, dependencias \n  Cordinacion entre el equipo QA (2 SAB, 1 ODI) (*)\n  UAT presentacion de ciclo de pruebas\n  Revision de los entregables para despliegue de enlatado en un repositorio de componentesCD&amp;#34;,&amp;#34;m&amp;#34;:[{&amp;#34;s&amp;#34;:0,&amp;#34;n&amp;#34;:&amp;#34;a&amp;#34;,&amp;#34;v&amp;#34;:&amp;#34;left&amp;#34;},{&amp;#34;s&amp;#34;:34,&amp;#34;n&amp;#34;:&amp;#34;a&amp;#34;,&amp;#34;v&amp;#34;:&amp;#34;left&amp;#34;},{&amp;#34;s&amp;#34;:83,&amp;#34;n&amp;#34;:&amp;#34;a&amp;#34;,&amp;#34;v&amp;#34;:&amp;#34;left&amp;#34;},{&amp;#34;s&amp;#34;:103,&amp;#34;n&amp;#34;:&amp;#34;a&amp;#34;,&amp;#34;v&amp;#34;:&amp;#34;left&amp;#34;},{&amp;#34;s&amp;#34;:122,&amp;#34;n&amp;#34;:&amp;#34;a&amp;#34;,&amp;#34;v&amp;#34;:&amp;#34;left&amp;#34;},{&amp;#34;s&amp;#34;:138,&amp;#34;n&amp;#34;:&amp;#34;a&amp;#34;,&amp;#34;v&amp;#34;:&amp;#34;left&amp;#34;},{&amp;#34;s&amp;#34;:177,&amp;#34;n&amp;#34;:&amp;#34;a&amp;#34;,&amp;#34;v&amp;#34;:&amp;#34;left&amp;#34;},{&amp;#34;s&amp;#34;:193,&amp;#34;n&amp;#34;:&amp;#34;a&amp;#34;,&amp;#34;v&amp;#34;:&amp;#34;left&amp;#34;},{&amp;#34;s&amp;#34;:230,&amp;#34;n&amp;#34;:&amp;#34;a&amp;#34;,&amp;#34;v&amp;#34;:&amp;#34;left&amp;#34;},{&amp;#34;s&amp;#34;:254,&amp;#34;n&amp;#34;:&amp;#34;a&amp;#34;,&amp;#34;v&amp;#34;:&amp;#34;left&amp;#34;},{&amp;#34;s&amp;#34;:279,&amp;#34;n&amp;#34;:&amp;#34;a&amp;#34;,&amp;#34;v&amp;#34;:&amp;#34;left&amp;#34;},{&amp;#34;s&amp;#34;:311,&amp;#34;n&amp;#34;:&amp;#34;a&amp;#34;,&amp;#34;v&amp;#34;:&amp;#34;left&amp;#34;},{&amp;#34;s&amp;#34;:341,&amp;#34;n&amp;#34;:&amp;#34;a&amp;#34;,&amp;#34;v&amp;#34;:&amp;#34;left&amp;#34;},{&amp;#34;s&amp;#34;:379,&amp;#34;n&amp;#34;:&amp;#34;a&amp;#34;,&amp;#34;v&amp;#34;:&amp;#34;left&amp;#34;},{&amp;#34;s&amp;#34;:415,&amp;#34;n&amp;#34;:&amp;#34;a&amp;#34;,&amp;#34;v&amp;#34;:&amp;#34;left&amp;#34;},{&amp;#34;s&amp;#34;:428,&amp;#34;n&amp;#34;:&amp;#34;a&amp;#34;,&amp;#34;v&amp;#34;:&amp;#34;left&amp;#34;},{&amp;#34;s&amp;#34;:453,&amp;#34;n&amp;#34;:&amp;#34;a&amp;#34;,&amp;#34;v&amp;#34;:&amp;#34;left&amp;#34;},{&amp;#34;s&amp;#34;:482,&amp;#34;n&amp;#34;:&amp;#34;a&amp;#34;,&amp;#34;v&amp;#34;:&amp;#34;left&amp;#34;},{&amp;#34;s&amp;#34;:525,&amp;#34;n&amp;#34;:&amp;#34;a&amp;#34;,&amp;#34;v&amp;#34;:&amp;#34;left&amp;#34;},{&amp;#34;s&amp;#34;:586,&amp;#34;n&amp;#34;:&amp;#34;a&amp;#34;,&amp;#34;v&amp;#34;:&amp;#34;left&amp;#34;},{&amp;#34;s&amp;#34;:681,&amp;#34;n&amp;#34;:&amp;#34;a&amp;#34;,&amp;#34;v&amp;#34;:&amp;#34;left&amp;#34;},{&amp;#34;s&amp;#34;:733,&amp;#34;n&amp;#34;:&amp;#34;a&amp;#34;,&amp;#34;v&amp;#34;:&amp;#34;left&amp;#34;},{&amp;#34;s&amp;#34;:772,&amp;#34;n&amp;#34;:&amp;#34;a&amp;#34;,&amp;#34;v&amp;#34;:&amp;#34;left&amp;#34;}]}&quot;&gt;&lt;span&gt;   Codificacion de las Automatizacion&lt;/span&gt;&lt;/span&gt;&lt;/blockquote&gt;&lt;blockquote style=&quot;margin: 0 0 0 40px ; border: none ; padding: 0px&quot;&gt;&lt;span data-lucid-type=&quot;application/vnd.lucid.text&quot; data-lucid-content=&quot;{&amp;#34;t&amp;#34;:&amp;#34;Calidad (Control y Aseguramiento)\n1 inteligo + (2 SAB, 1 ODI, 1 WEB *, 1 BIZAGI *)\nPruebas Funcionales\n   Plan de Pruebas\n      Test Case\n      Preparacion de Data en Ambientes\n      Execution\n      Recolectar Evidancias (Result)\n      Reportar defectos\n   Biblioteca de Pruebas\n   Indicadores (Coverturas) (*)\nPruebas de Automatizacion (*)\n   Codificacion de las Automatizacion\n   Preparacion de Data en Ambientes\n   Execucion\n   Recolectar Evidancias\nPruebas de Stress (Opcional)\nAseguramiento de la calidad (Procesos) (*)\n  Revision y cumplimiento de la informacion en las historias\n  Revision y cumplimiento de dessarrollo control de versiones, sonar, sonarlint, dependencias \n  Cordinacion entre el equipo QA (2 SAB, 1 ODI) (*)\n  UAT presentacion de ciclo de pruebas\n  Revision de los entregables para despliegue de enlatado en un repositorio de componentesCD&amp;#34;,&amp;#34;m&amp;#34;:[{&amp;#34;s&amp;#34;:0,&amp;#34;n&amp;#34;:&amp;#34;a&amp;#34;,&amp;#34;v&amp;#34;:&amp;#34;left&amp;#34;},{&amp;#34;s&amp;#34;:34,&amp;#34;n&amp;#34;:&amp;#34;a&amp;#34;,&amp;#34;v&amp;#34;:&amp;#34;left&amp;#34;},{&amp;#34;s&amp;#34;:83,&amp;#34;n&amp;#34;:&amp;#34;a&amp;#34;,&amp;#34;v&amp;#34;:&amp;#34;left&amp;#34;},{&amp;#34;s&amp;#34;:103,&amp;#34;n&amp;#34;:&amp;#34;a&amp;#34;,&amp;#34;v&amp;#34;:&amp;#34;left&amp;#34;},{&amp;#34;s&amp;#34;:122,&amp;#34;n&amp;#34;:&amp;#34;a&amp;#34;,&amp;#34;v&amp;#34;:&amp;#34;left&amp;#34;},{&amp;#34;s&amp;#34;:138,&amp;#34;n&amp;#34;:&amp;#34;a&amp;#34;,&amp;#34;v&amp;#34;:&amp;#34;left&amp;#34;},{&amp;#34;s&amp;#34;:177,&amp;#34;n&amp;#34;:&amp;#34;a&amp;#34;,&amp;#34;v&amp;#34;:&amp;#34;left&amp;#34;},{&amp;#34;s&amp;#34;:193,&amp;#34;n&amp;#34;:&amp;#34;a&amp;#34;,&amp;#34;v&amp;#34;:&amp;#34;left&amp;#34;},{&amp;#34;s&amp;#34;:230,&amp;#34;n&amp;#34;:&amp;#34;a&amp;#34;,&amp;#34;v&amp;#34;:&amp;#34;left&amp;#34;},{&amp;#34;s&amp;#34;:254,&amp;#34;n&amp;#34;:&amp;#34;a&amp;#34;,&amp;#34;v&amp;#34;:&amp;#34;left&amp;#34;},{&amp;#34;s&amp;#34;:279,&amp;#34;n&amp;#34;:&amp;#34;a&amp;#34;,&amp;#34;v&amp;#34;:&amp;#34;left&amp;#34;},{&amp;#34;s&amp;#34;:311,&amp;#34;n&amp;#34;:&amp;#34;a&amp;#34;,&amp;#34;v&amp;#34;:&amp;#34;left&amp;#34;},{&amp;#34;s&amp;#34;:341,&amp;#34;n&amp;#34;:&amp;#34;a&amp;#34;,&amp;#34;v&amp;#34;:&amp;#34;left&amp;#34;},{&amp;#34;s&amp;#34;:379,&amp;#34;n&amp;#34;:&amp;#34;a&amp;#34;,&amp;#34;v&amp;#34;:&amp;#34;left&amp;#34;},{&amp;#34;s&amp;#34;:415,&amp;#34;n&amp;#34;:&amp;#34;a&amp;#34;,&amp;#34;v&amp;#34;:&amp;#34;left&amp;#34;},{&amp;#34;s&amp;#34;:428,&amp;#34;n&amp;#34;:&amp;#34;a&amp;#34;,&amp;#34;v&amp;#34;:&amp;#34;left&amp;#34;},{&amp;#34;s&amp;#34;:453,&amp;#34;n&amp;#34;:&amp;#34;a&amp;#34;,&amp;#34;v&amp;#34;:&amp;#34;left&amp;#34;},{&amp;#34;s&amp;#34;:482,&amp;#34;n&amp;#34;:&amp;#34;a&amp;#34;,&amp;#34;v&amp;#34;:&amp;#34;left&amp;#34;},{&amp;#34;s&amp;#34;:525,&amp;#34;n&amp;#34;:&amp;#34;a&amp;#34;,&amp;#34;v&amp;#34;:&amp;#34;left&amp;#34;},{&amp;#34;s&amp;#34;:586,&amp;#34;n&amp;#34;:&amp;#34;a&amp;#34;,&amp;#34;v&amp;#34;:&amp;#34;left&amp;#34;},{&amp;#34;s&amp;#34;:681,&amp;#34;n&amp;#34;:&amp;#34;a&amp;#34;,&amp;#34;v&amp;#34;:&amp;#34;left&amp;#34;},{&amp;#34;s&amp;#34;:733,&amp;#34;n&amp;#34;:&amp;#34;a&amp;#34;,&amp;#34;v&amp;#34;:&amp;#34;left&amp;#34;},{&amp;#34;s&amp;#34;:772,&amp;#34;n&amp;#34;:&amp;#34;a&amp;#34;,&amp;#34;v&amp;#34;:&amp;#34;left&amp;#34;}]}&quot;&gt;&lt;span&gt;   Preparacion de Data en Ambientes&lt;/span&gt;&lt;/span&gt;&lt;/blockquote&gt;&lt;blockquote style=&quot;margin: 0 0 0 40px ; border: none ; padding: 0px&quot;&gt;&lt;span data-lucid-type=&quot;application/vnd.lucid.text&quot; data-lucid-content=&quot;{&amp;#34;t&amp;#34;:&amp;#34;Calidad (Control y Aseguramiento)\n1 inteligo + (2 SAB, 1 ODI, 1 WEB *, 1 BIZAGI *)\nPruebas Funcionales\n   Plan de Pruebas\n      Test Case\n      Preparacion de Data en Ambientes\n      Execution\n      Recolectar Evidancias (Result)\n      Reportar defectos\n   Biblioteca de Pruebas\n   Indicadores (Coverturas) (*)\nPruebas de Automatizacion (*)\n   Codificacion de las Automatizacion\n   Preparacion de Data en Ambientes\n   Execucion\n   Recolectar Evidancias\nPruebas de Stress (Opcional)\nAseguramiento de la calidad (Procesos) (*)\n  Revision y cumplimiento de la informacion en las historias\n  Revision y cumplimiento de dessarrollo control de versiones, sonar, sonarlint, dependencias \n  Cordinacion entre el equipo QA (2 SAB, 1 ODI) (*)\n  UAT presentacion de ciclo de pruebas\n  Revision de los entregables para despliegue de enlatado en un repositorio de componentesCD&amp;#34;,&amp;#34;m&amp;#34;:[{&amp;#34;s&amp;#34;:0,&amp;#34;n&amp;#34;:&amp;#34;a&amp;#34;,&amp;#34;v&amp;#34;:&amp;#34;left&amp;#34;},{&amp;#34;s&amp;#34;:34,&amp;#34;n&amp;#34;:&amp;#34;a&amp;#34;,&amp;#34;v&amp;#34;:&amp;#34;left&amp;#34;},{&amp;#34;s&amp;#34;:83,&amp;#34;n&amp;#34;:&amp;#34;a&amp;#34;,&amp;#34;v&amp;#34;:&amp;#34;left&amp;#34;},{&amp;#34;s&amp;#34;:103,&amp;#34;n&amp;#34;:&amp;#34;a&amp;#34;,&amp;#34;v&amp;#34;:&amp;#34;left&amp;#34;},{&amp;#34;s&amp;#34;:122,&amp;#34;n&amp;#34;:&amp;#34;a&amp;#34;,&amp;#34;v&amp;#34;:&amp;#34;left&amp;#34;},{&amp;#34;s&amp;#34;:138,&amp;#34;n&amp;#34;:&amp;#34;a&amp;#34;,&amp;#34;v&amp;#34;:&amp;#34;left&amp;#34;},{&amp;#34;s&amp;#34;:177,&amp;#34;n&amp;#34;:&amp;#34;a&amp;#34;,&amp;#34;v&amp;#34;:&amp;#34;left&amp;#34;},{&amp;#34;s&amp;#34;:193,&amp;#34;n&amp;#34;:&amp;#34;a&amp;#34;,&amp;#34;v&amp;#34;:&amp;#34;left&amp;#34;},{&amp;#34;s&amp;#34;:230,&amp;#34;n&amp;#34;:&amp;#34;a&amp;#34;,&amp;#34;v&amp;#34;:&amp;#34;left&amp;#34;},{&amp;#34;s&amp;#34;:254,&amp;#34;n&amp;#34;:&amp;#34;a&amp;#34;,&amp;#34;v&amp;#34;:&amp;#34;left&amp;#34;},{&amp;#34;s&amp;#34;:279,&amp;#34;n&amp;#34;:&amp;#34;a&amp;#34;,&amp;#34;v&amp;#34;:&amp;#34;left&amp;#34;},{&amp;#34;s&amp;#34;:311,&amp;#34;n&amp;#34;:&amp;#34;a&amp;#34;,&amp;#34;v&amp;#34;:&amp;#34;left&amp;#34;},{&amp;#34;s&amp;#34;:341,&amp;#34;n&amp;#34;:&amp;#34;a&amp;#34;,&amp;#34;v&amp;#34;:&amp;#34;left&amp;#34;},{&amp;#34;s&amp;#34;:379,&amp;#34;n&amp;#34;:&amp;#34;a&amp;#34;,&amp;#34;v&amp;#34;:&amp;#34;left&amp;#34;},{&amp;#34;s&amp;#34;:415,&amp;#34;n&amp;#34;:&amp;#34;a&amp;#34;,&amp;#34;v&amp;#34;:&amp;#34;left&amp;#34;},{&amp;#34;s&amp;#34;:428,&amp;#34;n&amp;#34;:&amp;#34;a&amp;#34;,&amp;#34;v&amp;#34;:&amp;#34;left&amp;#34;},{&amp;#34;s&amp;#34;:453,&amp;#34;n&amp;#34;:&amp;#34;a&amp;#34;,&amp;#34;v&amp;#34;:&amp;#34;left&amp;#34;},{&amp;#34;s&amp;#34;:482,&amp;#34;n&amp;#34;:&amp;#34;a&amp;#34;,&amp;#34;v&amp;#34;:&amp;#34;left&amp;#34;},{&amp;#34;s&amp;#34;:525,&amp;#34;n&amp;#34;:&amp;#34;a&amp;#34;,&amp;#34;v&amp;#34;:&amp;#34;left&amp;#34;},{&amp;#34;s&amp;#34;:586,&amp;#34;n&amp;#34;:&amp;#34;a&amp;#34;,&amp;#34;v&amp;#34;:&amp;#34;left&amp;#34;},{&amp;#34;s&amp;#34;:681,&amp;#34;n&amp;#34;:&amp;#34;a&amp;#34;,&amp;#34;v&amp;#34;:&amp;#34;left&amp;#34;},{&amp;#34;s&amp;#34;:733,&amp;#34;n&amp;#34;:&amp;#34;a&amp;#34;,&amp;#34;v&amp;#34;:&amp;#34;left&amp;#34;},{&amp;#34;s&amp;#34;:772,&amp;#34;n&amp;#34;:&amp;#34;a&amp;#34;,&amp;#34;v&amp;#34;:&amp;#34;left&amp;#34;}]}&quot;&gt;&lt;span&gt;   Execucion&lt;/span&gt;&lt;/span&gt;&lt;/blockquote&gt;&lt;blockquote style=&quot;margin: 0 0 0 40px ; border: none ; padding: 0px&quot;&gt;&lt;span data-lucid-type=&quot;application/vnd.lucid.text&quot; data-lucid-content=&quot;{&amp;#34;t&amp;#34;:&amp;#34;Calidad (Control y Aseguramiento)\n1 inteligo + (2 SAB, 1 ODI, 1 WEB *, 1 BIZAGI *)\nPruebas Funcionales\n   Plan de Pruebas\n      Test Case\n      Preparacion de Data en Ambientes\n      Execution\n      Recolectar Evidancias (Result)\n      Reportar defectos\n   Biblioteca de Pruebas\n   Indicadores (Coverturas) (*)\nPruebas de Automatizacion (*)\n   Codificacion de las Automatizacion\n   Preparacion de Data en Ambientes\n   Execucion\n   Recolectar Evidancias\nPruebas de Stress (Opcional)\nAseguramiento de la calidad (Procesos) (*)\n  Revision y cumplimiento de la informacion en las historias\n  Revision y cumplimiento de dessarrollo control de versiones, sonar, sonarlint, dependencias \n  Cordinacion entre el equipo QA (2 SAB, 1 ODI) (*)\n  UAT presentacion de ciclo de pruebas\n  Revision de los entregables para despliegue de enlatado en un repositorio de componentesCD&amp;#34;,&amp;#34;m&amp;#34;:[{&amp;#34;s&amp;#34;:0,&amp;#34;n&amp;#34;:&amp;#34;a&amp;#34;,&amp;#34;v&amp;#34;:&amp;#34;left&amp;#34;},{&amp;#34;s&amp;#34;:34,&amp;#34;n&amp;#34;:&amp;#34;a&amp;#34;,&amp;#34;v&amp;#34;:&amp;#34;left&amp;#34;},{&amp;#34;s&amp;#34;:83,&amp;#34;n&amp;#34;:&amp;#34;a&amp;#34;,&amp;#34;v&amp;#34;:&amp;#34;left&amp;#34;},{&amp;#34;s&amp;#34;:103,&amp;#34;n&amp;#34;:&amp;#34;a&amp;#34;,&amp;#34;v&amp;#34;:&amp;#34;left&amp;#34;},{&amp;#34;s&amp;#34;:122,&amp;#34;n&amp;#34;:&amp;#34;a&amp;#34;,&amp;#34;v&amp;#34;:&amp;#34;left&amp;#34;},{&amp;#34;s&amp;#34;:138,&amp;#34;n&amp;#34;:&amp;#34;a&amp;#34;,&amp;#34;v&amp;#34;:&amp;#34;left&amp;#34;},{&amp;#34;s&amp;#34;:177,&amp;#34;n&amp;#34;:&amp;#34;a&amp;#34;,&amp;#34;v&amp;#34;:&amp;#34;left&amp;#34;},{&amp;#34;s&amp;#34;:193,&amp;#34;n&amp;#34;:&amp;#34;a&amp;#34;,&amp;#34;v&amp;#34;:&amp;#34;left&amp;#34;},{&amp;#34;s&amp;#34;:230,&amp;#34;n&amp;#34;:&amp;#34;a&amp;#34;,&amp;#34;v&amp;#34;:&amp;#34;left&amp;#34;},{&amp;#34;s&amp;#34;:254,&amp;#34;n&amp;#34;:&amp;#34;a&amp;#34;,&amp;#34;v&amp;#34;:&amp;#34;left&amp;#34;},{&amp;#34;s&amp;#34;:279,&amp;#34;n&amp;#34;:&amp;#34;a&amp;#34;,&amp;#34;v&amp;#34;:&amp;#34;left&amp;#34;},{&amp;#34;s&amp;#34;:311,&amp;#34;n&amp;#34;:&amp;#34;a&amp;#34;,&amp;#34;v&amp;#34;:&amp;#34;left&amp;#34;},{&amp;#34;s&amp;#34;:341,&amp;#34;n&amp;#34;:&amp;#34;a&amp;#34;,&amp;#34;v&amp;#34;:&amp;#34;left&amp;#34;},{&amp;#34;s&amp;#34;:379,&amp;#34;n&amp;#34;:&amp;#34;a&amp;#34;,&amp;#34;v&amp;#34;:&amp;#34;left&amp;#34;},{&amp;#34;s&amp;#34;:415,&amp;#34;n&amp;#34;:&amp;#34;a&amp;#34;,&amp;#34;v&amp;#34;:&amp;#34;left&amp;#34;},{&amp;#34;s&amp;#34;:428,&amp;#34;n&amp;#34;:&amp;#34;a&amp;#34;,&amp;#34;v&amp;#34;:&amp;#34;left&amp;#34;},{&amp;#34;s&amp;#34;:453,&amp;#34;n&amp;#34;:&amp;#34;a&amp;#34;,&amp;#34;v&amp;#34;:&amp;#34;left&amp;#34;},{&amp;#34;s&amp;#34;:482,&amp;#34;n&amp;#34;:&amp;#34;a&amp;#34;,&amp;#34;v&amp;#34;:&amp;#34;left&amp;#34;},{&amp;#34;s&amp;#34;:525,&amp;#34;n&amp;#34;:&amp;#34;a&amp;#34;,&amp;#34;v&amp;#34;:&amp;#34;left&amp;#34;},{&amp;#34;s&amp;#34;:586,&amp;#34;n&amp;#34;:&amp;#34;a&amp;#34;,&amp;#34;v&amp;#34;:&amp;#34;left&amp;#34;},{&amp;#34;s&amp;#34;:681,&amp;#34;n&amp;#34;:&amp;#34;a&amp;#34;,&amp;#34;v&amp;#34;:&amp;#34;left&amp;#34;},{&amp;#34;s&amp;#34;:733,&amp;#34;n&amp;#34;:&amp;#34;a&amp;#34;,&amp;#34;v&amp;#34;:&amp;#34;left&amp;#34;},{&amp;#34;s&amp;#34;:772,&amp;#34;n&amp;#34;:&amp;#34;a&amp;#34;,&amp;#34;v&amp;#34;:&amp;#34;left&amp;#34;}]}&quot;&gt;&lt;span&gt;   Recolectar Evidancias&lt;/span&gt;&lt;/span&gt;&lt;/blockquote&gt;&lt;span data-lucid-type=&quot;application/vnd.lucid.text&quot; data-lucid-content=&quot;{&amp;#34;t&amp;#34;:&amp;#34;Calidad (Control y Aseguramiento)\n1 inteligo + (2 SAB, 1 ODI, 1 WEB *, 1 BIZAGI *)\nPruebas Funcionales\n   Plan de Pruebas\n      Test Case\n      Preparacion de Data en Ambientes\n      Execution\n      Recolectar Evidancias (Result)\n      Reportar defectos\n   Biblioteca de Pruebas\n   Indicadores (Coverturas) (*)\nPruebas de Automatizacion (*)\n   Codificacion de las Automatizacion\n   Preparacion de Data en Ambientes\n   Execucion\n   Recolectar Evidancias\nPruebas de Stress (Opcional)\nAseguramiento de la calidad (Procesos) (*)\n  Revision y cumplimiento de la informacion en las historias\n  Revision y cumplimiento de dessarrollo control de versiones, sonar, sonarlint, dependencias \n  Cordinacion entre el equipo QA (2 SAB, 1 ODI) (*)\n  UAT presentacion de ciclo de pruebas\n  Revision de los entregables para despliegue de enlatado en un repositorio de componentesCD&amp;#34;,&amp;#34;m&amp;#34;:[{&amp;#34;s&amp;#34;:0,&amp;#34;n&amp;#34;:&amp;#34;a&amp;#34;,&amp;#34;v&amp;#34;:&amp;#34;left&amp;#34;},{&amp;#34;s&amp;#34;:34,&amp;#34;n&amp;#34;:&amp;#34;a&amp;#34;,&amp;#34;v&amp;#34;:&amp;#34;left&amp;#34;},{&amp;#34;s&amp;#34;:83,&amp;#34;n&amp;#34;:&amp;#34;a&amp;#34;,&amp;#34;v&amp;#34;:&amp;#34;left&amp;#34;},{&amp;#34;s&amp;#34;:103,&amp;#34;n&amp;#34;:&amp;#34;a&amp;#34;,&amp;#34;v&amp;#34;:&amp;#34;left&amp;#34;},{&amp;#34;s&amp;#34;:122,&amp;#34;n&amp;#34;:&amp;#34;a&amp;#34;,&amp;#34;v&amp;#34;:&amp;#34;left&amp;#34;},{&amp;#34;s&amp;#34;:138,&amp;#34;n&amp;#34;:&amp;#34;a&amp;#34;,&amp;#34;v&amp;#34;:&amp;#34;left&amp;#34;},{&amp;#34;s&amp;#34;:177,&amp;#34;n&amp;#34;:&amp;#34;a&amp;#34;,&amp;#34;v&amp;#34;:&amp;#34;left&amp;#34;},{&amp;#34;s&amp;#34;:193,&amp;#34;n&amp;#34;:&amp;#34;a&amp;#34;,&amp;#34;v&amp;#34;:&amp;#34;left&amp;#34;},{&amp;#34;s&amp;#34;:230,&amp;#34;n&amp;#34;:&amp;#34;a&amp;#34;,&amp;#34;v&amp;#34;:&amp;#34;left&amp;#34;},{&amp;#34;s&amp;#34;:254,&amp;#34;n&amp;#34;:&amp;#34;a&amp;#34;,&amp;#34;v&amp;#34;:&amp;#34;left&amp;#34;},{&amp;#34;s&amp;#34;:279,&amp;#34;n&amp;#34;:&amp;#34;a&amp;#34;,&amp;#34;v&amp;#34;:&amp;#34;left&amp;#34;},{&amp;#34;s&amp;#34;:311,&amp;#34;n&amp;#34;:&amp;#34;a&amp;#34;,&amp;#34;v&amp;#34;:&amp;#34;left&amp;#34;},{&amp;#34;s&amp;#34;:341,&amp;#34;n&amp;#34;:&amp;#34;a&amp;#34;,&amp;#34;v&amp;#34;:&amp;#34;left&amp;#34;},{&amp;#34;s&amp;#34;:379,&amp;#34;n&amp;#34;:&amp;#34;a&amp;#34;,&amp;#34;v&amp;#34;:&amp;#34;left&amp;#34;},{&amp;#34;s&amp;#34;:415,&amp;#34;n&amp;#34;:&amp;#34;a&amp;#34;,&amp;#34;v&amp;#34;:&amp;#34;left&amp;#34;},{&amp;#34;s&amp;#34;:428,&amp;#34;n&amp;#34;:&amp;#34;a&amp;#34;,&amp;#34;v&amp;#34;:&amp;#34;left&amp;#34;},{&amp;#34;s&amp;#34;:453,&amp;#34;n&amp;#34;:&amp;#34;a&amp;#34;,&amp;#34;v&amp;#34;:&amp;#34;left&amp;#34;},{&amp;#34;s&amp;#34;:482,&amp;#34;n&amp;#34;:&amp;#34;a&amp;#34;,&amp;#34;v&amp;#34;:&amp;#34;left&amp;#34;},{&amp;#34;s&amp;#34;:525,&amp;#34;n&amp;#34;:&amp;#34;a&amp;#34;,&amp;#34;v&amp;#34;:&amp;#34;left&amp;#34;},{&amp;#34;s&amp;#34;:586,&amp;#34;n&amp;#34;:&amp;#34;a&amp;#34;,&amp;#34;v&amp;#34;:&amp;#34;left&amp;#34;},{&amp;#34;s&amp;#34;:681,&amp;#34;n&amp;#34;:&amp;#34;a&amp;#34;,&amp;#34;v&amp;#34;:&amp;#34;left&amp;#34;},{&amp;#34;s&amp;#34;:733,&amp;#34;n&amp;#34;:&amp;#34;a&amp;#34;,&amp;#34;v&amp;#34;:&amp;#34;left&amp;#34;},{&amp;#34;s&amp;#34;:772,&amp;#34;n&amp;#34;:&amp;#34;a&amp;#34;,&amp;#34;v&amp;#34;:&amp;#34;left&amp;#34;}]}&quot;&gt;&lt;span&gt;Pruebas de Stress (Opcional)&lt;/span&gt;&lt;/span&gt;&lt;/blockquote&gt;&lt;blockquote style=&quot;margin: 0 0 0 40px ; border: none ; padding: 0px&quot;&gt;&lt;span data-lucid-type=&quot;application/vnd.lucid.text&quot; data-lucid-content=&quot;{&amp;#34;t&amp;#34;:&amp;#34;Calidad (Control y Aseguramiento)\n1 inteligo + (2 SAB, 1 ODI, 1 WEB *, 1 BIZAGI *)\nPruebas Funcionales\n   Plan de Pruebas\n      Test Case\n      Preparacion de Data en Ambientes\n      Execution\n      Recolectar Evidancias (Result)\n      Reportar defectos\n   Biblioteca de Pruebas\n   Indicadores (Coverturas) (*)\nPruebas de Automatizacion (*)\n   Codificacion de las Automatizacion\n   Preparacion de Data en Ambientes\n   Execucion\n   Recolectar Evidancias\nPruebas de Stress (Opcional)\nAseguramiento de la calidad (Procesos) (*)\n  Revision y cumplimiento de la informacion en las historias\n  Revision y cumplimiento de dessarrollo control de versiones, sonar, sonarlint, dependencias \n  Cordinacion entre el equipo QA (2 SAB, 1 ODI) (*)\n  UAT presentacion de ciclo de pruebas\n  Revision de los entregables para despliegue de enlatado en un repositorio de componentesCD&amp;#34;,&amp;#34;m&amp;#34;:[{&amp;#34;s&amp;#34;:0,&amp;#34;n&amp;#34;:&amp;#34;a&amp;#34;,&amp;#34;v&amp;#34;:&amp;#34;left&amp;#34;},{&amp;#34;s&amp;#34;:34,&amp;#34;n&amp;#34;:&amp;#34;a&amp;#34;,&amp;#34;v&amp;#34;:&amp;#34;left&amp;#34;},{&amp;#34;s&amp;#34;:83,&amp;#34;n&amp;#34;:&amp;#34;a&amp;#34;,&amp;#34;v&amp;#34;:&amp;#34;left&amp;#34;},{&amp;#34;s&amp;#34;:103,&amp;#34;n&amp;#34;:&amp;#34;a&amp;#34;,&amp;#34;v&amp;#34;:&amp;#34;left&amp;#34;},{&amp;#34;s&amp;#34;:122,&amp;#34;n&amp;#34;:&amp;#34;a&amp;#34;,&amp;#34;v&amp;#34;:&amp;#34;left&amp;#34;},{&amp;#34;s&amp;#34;:138,&amp;#34;n&amp;#34;:&amp;#34;a&amp;#34;,&amp;#34;v&amp;#34;:&amp;#34;left&amp;#34;},{&amp;#34;s&amp;#34;:177,&amp;#34;n&amp;#34;:&amp;#34;a&amp;#34;,&amp;#34;v&amp;#34;:&amp;#34;left&amp;#34;},{&amp;#34;s&amp;#34;:193,&amp;#34;n&amp;#34;:&amp;#34;a&amp;#34;,&amp;#34;v&amp;#34;:&amp;#34;left&amp;#34;},{&amp;#34;s&amp;#34;:230,&amp;#34;n&amp;#34;:&amp;#34;a&amp;#34;,&amp;#34;v&amp;#34;:&amp;#34;left&amp;#34;},{&amp;#34;s&amp;#34;:254,&amp;#34;n&amp;#34;:&amp;#34;a&amp;#34;,&amp;#34;v&amp;#34;:&amp;#34;left&amp;#34;},{&amp;#34;s&amp;#34;:279,&amp;#34;n&amp;#34;:&amp;#34;a&amp;#34;,&amp;#34;v&amp;#34;:&amp;#34;left&amp;#34;},{&amp;#34;s&amp;#34;:311,&amp;#34;n&amp;#34;:&amp;#34;a&amp;#34;,&amp;#34;v&amp;#34;:&amp;#34;left&amp;#34;},{&amp;#34;s&amp;#34;:341,&amp;#34;n&amp;#34;:&amp;#34;a&amp;#34;,&amp;#34;v&amp;#34;:&amp;#34;left&amp;#34;},{&amp;#34;s&amp;#34;:379,&amp;#34;n&amp;#34;:&amp;#34;a&amp;#34;,&amp;#34;v&amp;#34;:&amp;#34;left&amp;#34;},{&amp;#34;s&amp;#34;:415,&amp;#34;n&amp;#34;:&amp;#34;a&amp;#34;,&amp;#34;v&amp;#34;:&amp;#34;left&amp;#34;},{&amp;#34;s&amp;#34;:428,&amp;#34;n&amp;#34;:&amp;#34;a&amp;#34;,&amp;#34;v&amp;#34;:&amp;#34;left&amp;#34;},{&amp;#34;s&amp;#34;:453,&amp;#34;n&amp;#34;:&amp;#34;a&amp;#34;,&amp;#34;v&amp;#34;:&amp;#34;left&amp;#34;},{&amp;#34;s&amp;#34;:482,&amp;#34;n&amp;#34;:&amp;#34;a&amp;#34;,&amp;#34;v&amp;#34;:&amp;#34;left&amp;#34;},{&amp;#34;s&amp;#34;:525,&amp;#34;n&amp;#34;:&amp;#34;a&amp;#34;,&amp;#34;v&amp;#34;:&amp;#34;left&amp;#34;},{&amp;#34;s&amp;#34;:586,&amp;#34;n&amp;#34;:&amp;#34;a&amp;#34;,&amp;#34;v&amp;#34;:&amp;#34;left&amp;#34;},{&amp;#34;s&amp;#34;:681,&amp;#34;n&amp;#34;:&amp;#34;a&amp;#34;,&amp;#34;v&amp;#34;:&amp;#34;left&amp;#34;},{&amp;#34;s&amp;#34;:733,&amp;#34;n&amp;#34;:&amp;#34;a&amp;#34;,&amp;#34;v&amp;#34;:&amp;#34;left&amp;#34;},{&amp;#34;s&amp;#34;:772,&amp;#34;n&amp;#34;:&amp;#34;a&amp;#34;,&amp;#34;v&amp;#34;:&amp;#34;left&amp;#34;}]}&quot;&gt;&lt;span&gt;Pruebas de UAT&lt;/span&gt;&lt;/span&gt;&lt;/blockquote&gt;&lt;span data-lucid-type=&quot;application/vnd.lucid.text&quot; data-lucid-content=&quot;{&amp;#34;t&amp;#34;:&amp;#34;Calidad (Control y Aseguramiento)\n1 inteligo + (2 SAB, 1 ODI, 1 WEB *, 1 BIZAGI *)\nPruebas Funcionales\n   Plan de Pruebas\n      Test Case\n      Preparacion de Data en Ambientes\n      Execution\n      Recolectar Evidancias (Result)\n      Reportar defectos\n   Biblioteca de Pruebas\n   Indicadores (Coverturas) (*)\nPruebas de Automatizacion (*)\n   Codificacion de las Automatizacion\n   Preparacion de Data en Ambientes\n   Execucion\n   Recolectar Evidancias\nPruebas de Stress (Opcional)\nAseguramiento de la calidad (Procesos) (*)\n  Revision y cumplimiento de la informacion en las historias\n  Revision y cumplimiento de dessarrollo control de versiones, sonar, sonarlint, dependencias \n  Cordinacion entre el equipo QA (2 SAB, 1 ODI) (*)\n  UAT presentacion de ciclo de pruebas\n  Revision de los entregables para despliegue de enlatado en un repositorio de componentesCD&amp;#34;,&amp;#34;m&amp;#34;:[{&amp;#34;s&amp;#34;:0,&amp;#34;n&amp;#34;:&amp;#34;a&amp;#34;,&amp;#34;v&amp;#34;:&amp;#34;left&amp;#34;},{&amp;#34;s&amp;#34;:34,&amp;#34;n&amp;#34;:&amp;#34;a&amp;#34;,&amp;#34;v&amp;#34;:&amp;#34;left&amp;#34;},{&amp;#34;s&amp;#34;:83,&amp;#34;n&amp;#34;:&amp;#34;a&amp;#34;,&amp;#34;v&amp;#34;:&amp;#34;left&amp;#34;},{&amp;#34;s&amp;#34;:103,&amp;#34;n&amp;#34;:&amp;#34;a&amp;#34;,&amp;#34;v&amp;#34;:&amp;#34;left&amp;#34;},{&amp;#34;s&amp;#34;:122,&amp;#34;n&amp;#34;:&amp;#34;a&amp;#34;,&amp;#34;v&amp;#34;:&amp;#34;left&amp;#34;},{&amp;#34;s&amp;#34;:138,&amp;#34;n&amp;#34;:&amp;#34;a&amp;#34;,&amp;#34;v&amp;#34;:&amp;#34;left&amp;#34;},{&amp;#34;s&amp;#34;:177,&amp;#34;n&amp;#34;:&amp;#34;a&amp;#34;,&amp;#34;v&amp;#34;:&amp;#34;left&amp;#34;},{&amp;#34;s&amp;#34;:193,&amp;#34;n&amp;#34;:&amp;#34;a&amp;#34;,&amp;#34;v&amp;#34;:&amp;#34;left&amp;#34;},{&amp;#34;s&amp;#34;:230,&amp;#34;n&amp;#34;:&amp;#34;a&amp;#34;,&amp;#34;v&amp;#34;:&amp;#34;left&amp;#34;},{&amp;#34;s&amp;#34;:254,&amp;#34;n&amp;#34;:&amp;#34;a&amp;#34;,&amp;#34;v&amp;#34;:&amp;#34;left&amp;#34;},{&amp;#34;s&amp;#34;:279,&amp;#34;n&amp;#34;:&amp;#34;a&amp;#34;,&amp;#34;v&amp;#34;:&amp;#34;left&amp;#34;},{&amp;#34;s&amp;#34;:311,&amp;#34;n&amp;#34;:&amp;#34;a&amp;#34;,&amp;#34;v&amp;#34;:&amp;#34;left&amp;#34;},{&amp;#34;s&amp;#34;:341,&amp;#34;n&amp;#34;:&amp;#34;a&amp;#34;,&amp;#34;v&amp;#34;:&amp;#34;left&amp;#34;},{&amp;#34;s&amp;#34;:379,&amp;#34;n&amp;#34;:&amp;#34;a&amp;#34;,&amp;#34;v&amp;#34;:&amp;#34;left&amp;#34;},{&amp;#34;s&amp;#34;:415,&amp;#34;n&amp;#34;:&amp;#34;a&amp;#34;,&amp;#34;v&amp;#34;:&amp;#34;left&amp;#34;},{&amp;#34;s&amp;#34;:428,&amp;#34;n&amp;#34;:&amp;#34;a&amp;#34;,&amp;#34;v&amp;#34;:&amp;#34;left&amp;#34;},{&amp;#34;s&amp;#34;:453,&amp;#34;n&amp;#34;:&amp;#34;a&amp;#34;,&amp;#34;v&amp;#34;:&amp;#34;left&amp;#34;},{&amp;#34;s&amp;#34;:482,&amp;#34;n&amp;#34;:&amp;#34;a&amp;#34;,&amp;#34;v&amp;#34;:&amp;#34;left&amp;#34;},{&amp;#34;s&amp;#34;:525,&amp;#34;n&amp;#34;:&amp;#34;a&amp;#34;,&amp;#34;v&amp;#34;:&amp;#34;left&amp;#34;},{&amp;#34;s&amp;#34;:586,&amp;#34;n&amp;#34;:&amp;#34;a&amp;#34;,&amp;#34;v&amp;#34;:&amp;#34;left&amp;#34;},{&amp;#34;s&amp;#34;:681,&amp;#34;n&amp;#34;:&amp;#34;a&amp;#34;,&amp;#34;v&amp;#34;:&amp;#34;left&amp;#34;},{&amp;#34;s&amp;#34;:733,&amp;#34;n&amp;#34;:&amp;#34;a&amp;#34;,&amp;#34;v&amp;#34;:&amp;#34;left&amp;#34;},{&amp;#34;s&amp;#34;:772,&amp;#34;n&amp;#34;:&amp;#34;a&amp;#34;,&amp;#34;v&amp;#34;:&amp;#34;left&amp;#34;}]}&quot;&gt;&lt;span&gt;Aseguramiento de la calidad (Procesos) (*)&lt;br&gt;&lt;/span&gt;&lt;/span&gt;&lt;blockquote style=&quot;margin: 0 0 0 40px ; border: none ; padding: 0px&quot;&gt;&lt;span data-lucid-type=&quot;application/vnd.lucid.text&quot; data-lucid-content=&quot;{&amp;#34;t&amp;#34;:&amp;#34;Calidad (Control y Aseguramiento)\n1 inteligo + (2 SAB, 1 ODI, 1 WEB *, 1 BIZAGI *)\nPruebas Funcionales\n   Plan de Pruebas\n      Test Case\n      Preparacion de Data en Ambientes\n      Execution\n      Recolectar Evidancias (Result)\n      Reportar defectos\n   Biblioteca de Pruebas\n   Indicadores (Coverturas) (*)\nPruebas de Automatizacion (*)\n   Codificacion de las Automatizacion\n   Preparacion de Data en Ambientes\n   Execucion\n   Recolectar Evidancias\nPruebas de Stress (Opcional)\nAseguramiento de la calidad (Procesos) (*)\n  Revision y cumplimiento de la informacion en las historias\n  Revision y cumplimiento de dessarrollo control de versiones, sonar, sonarlint, dependencias \n  Cordinacion entre el equipo QA (2 SAB, 1 ODI) (*)\n  UAT presentacion de ciclo de pruebas\n  Revision de los entregables para despliegue de enlatado en un repositorio de componentesCD&amp;#34;,&amp;#34;m&amp;#34;:[{&amp;#34;s&amp;#34;:0,&amp;#34;n&amp;#34;:&amp;#34;a&amp;#34;,&amp;#34;v&amp;#34;:&amp;#34;left&amp;#34;},{&amp;#34;s&amp;#34;:34,&amp;#34;n&amp;#34;:&amp;#34;a&amp;#34;,&amp;#34;v&amp;#34;:&amp;#34;left&amp;#34;},{&amp;#34;s&amp;#34;:83,&amp;#34;n&amp;#34;:&amp;#34;a&amp;#34;,&amp;#34;v&amp;#34;:&amp;#34;left&amp;#34;},{&amp;#34;s&amp;#34;:103,&amp;#34;n&amp;#34;:&amp;#34;a&amp;#34;,&amp;#34;v&amp;#34;:&amp;#34;left&amp;#34;},{&amp;#34;s&amp;#34;:122,&amp;#34;n&amp;#34;:&amp;#34;a&amp;#34;,&amp;#34;v&amp;#34;:&amp;#34;left&amp;#34;},{&amp;#34;s&amp;#34;:138,&amp;#34;n&amp;#34;:&amp;#34;a&amp;#34;,&amp;#34;v&amp;#34;:&amp;#34;left&amp;#34;},{&amp;#34;s&amp;#34;:177,&amp;#34;n&amp;#34;:&amp;#34;a&amp;#34;,&amp;#34;v&amp;#34;:&amp;#34;left&amp;#34;},{&amp;#34;s&amp;#34;:193,&amp;#34;n&amp;#34;:&amp;#34;a&amp;#34;,&amp;#34;v&amp;#34;:&amp;#34;left&amp;#34;},{&amp;#34;s&amp;#34;:230,&amp;#34;n&amp;#34;:&amp;#34;a&amp;#34;,&amp;#34;v&amp;#34;:&amp;#34;left&amp;#34;},{&amp;#34;s&amp;#34;:254,&amp;#34;n&amp;#34;:&amp;#34;a&amp;#34;,&amp;#34;v&amp;#34;:&amp;#34;left&amp;#34;},{&amp;#34;s&amp;#34;:279,&amp;#34;n&amp;#34;:&amp;#34;a&amp;#34;,&amp;#34;v&amp;#34;:&amp;#34;left&amp;#34;},{&amp;#34;s&amp;#34;:311,&amp;#34;n&amp;#34;:&amp;#34;a&amp;#34;,&amp;#34;v&amp;#34;:&amp;#34;left&amp;#34;},{&amp;#34;s&amp;#34;:341,&amp;#34;n&amp;#34;:&amp;#34;a&amp;#34;,&amp;#34;v&amp;#34;:&amp;#34;left&amp;#34;},{&amp;#34;s&amp;#34;:379,&amp;#34;n&amp;#34;:&amp;#34;a&amp;#34;,&amp;#34;v&amp;#34;:&amp;#34;left&amp;#34;},{&amp;#34;s&amp;#34;:415,&amp;#34;n&amp;#34;:&amp;#34;a&amp;#34;,&amp;#34;v&amp;#34;:&amp;#34;left&amp;#34;},{&amp;#34;s&amp;#34;:428,&amp;#34;n&amp;#34;:&amp;#34;a&amp;#34;,&amp;#34;v&amp;#34;:&amp;#34;left&amp;#34;},{&amp;#34;s&amp;#34;:453,&amp;#34;n&amp;#34;:&amp;#34;a&amp;#34;,&amp;#34;v&amp;#34;:&amp;#34;left&amp;#34;},{&amp;#34;s&amp;#34;:482,&amp;#34;n&amp;#34;:&amp;#34;a&amp;#34;,&amp;#34;v&amp;#34;:&amp;#34;left&amp;#34;},{&amp;#34;s&amp;#34;:525,&amp;#34;n&amp;#34;:&amp;#34;a&amp;#34;,&amp;#34;v&amp;#34;:&amp;#34;left&amp;#34;},{&amp;#34;s&amp;#34;:586,&amp;#34;n&amp;#34;:&amp;#34;a&amp;#34;,&amp;#34;v&amp;#34;:&amp;#34;left&amp;#34;},{&amp;#34;s&amp;#34;:681,&amp;#34;n&amp;#34;:&amp;#34;a&amp;#34;,&amp;#34;v&amp;#34;:&amp;#34;left&amp;#34;},{&amp;#34;s&amp;#34;:733,&amp;#34;n&amp;#34;:&amp;#34;a&amp;#34;,&amp;#34;v&amp;#34;:&amp;#34;left&amp;#34;},{&amp;#34;s&amp;#34;:772,&amp;#34;n&amp;#34;:&amp;#34;a&amp;#34;,&amp;#34;v&amp;#34;:&amp;#34;left&amp;#34;}]}&quot;&gt;&lt;span&gt;  Revision y cumplimiento de la informacion en las historias&lt;br&gt;&lt;/span&gt;&lt;/span&gt;&lt;span data-lucid-type=&quot;application/vnd.lucid.text&quot; data-lucid-content=&quot;{&amp;#34;t&amp;#34;:&amp;#34;Calidad (Control y Aseguramiento)\n1 inteligo + (2 SAB, 1 ODI, 1 WEB *, 1 BIZAGI *)\nPruebas Funcionales\n   Plan de Pruebas\n      Test Case\n      Preparacion de Data en Ambientes\n      Execution\n      Recolectar Evidancias (Result)\n      Reportar defectos\n   Biblioteca de Pruebas\n   Indicadores (Coverturas) (*)\nPruebas de Automatizacion (*)\n   Codificacion de las Automatizacion\n   Preparacion de Data en Ambientes\n   Execucion\n   Recolectar Evidancias\nPruebas de Stress (Opcional)\nAseguramiento de la calidad (Procesos) (*)\n  Revision y cumplimiento de la informacion en las historias\n  Revision y cumplimiento de dessarrollo control de versiones, sonar, sonarlint, dependencias \n  Cordinacion entre el equipo QA (2 SAB, 1 ODI) (*)\n  UAT presentacion de ciclo de pruebas\n  Revision de los entregables para despliegue de enlatado en un repositorio de componentesCD&amp;#34;,&amp;#34;m&amp;#34;:[{&amp;#34;s&amp;#34;:0,&amp;#34;n&amp;#34;:&amp;#34;a&amp;#34;,&amp;#34;v&amp;#34;:&amp;#34;left&amp;#34;},{&amp;#34;s&amp;#34;:34,&amp;#34;n&amp;#34;:&amp;#34;a&amp;#34;,&amp;#34;v&amp;#34;:&amp;#34;left&amp;#34;},{&amp;#34;s&amp;#34;:83,&amp;#34;n&amp;#34;:&amp;#34;a&amp;#34;,&amp;#34;v&amp;#34;:&amp;#34;left&amp;#34;},{&amp;#34;s&amp;#34;:103,&amp;#34;n&amp;#34;:&amp;#34;a&amp;#34;,&amp;#34;v&amp;#34;:&amp;#34;left&amp;#34;},{&amp;#34;s&amp;#34;:122,&amp;#34;n&amp;#34;:&amp;#34;a&amp;#34;,&amp;#34;v&amp;#34;:&amp;#34;left&amp;#34;},{&amp;#34;s&amp;#34;:138,&amp;#34;n&amp;#34;:&amp;#34;a&amp;#34;,&amp;#34;v&amp;#34;:&amp;#34;left&amp;#34;},{&amp;#34;s&amp;#34;:177,&amp;#34;n&amp;#34;:&amp;#34;a&amp;#34;,&amp;#34;v&amp;#34;:&amp;#34;left&amp;#34;},{&amp;#34;s&amp;#34;:193,&amp;#34;n&amp;#34;:&amp;#34;a&amp;#34;,&amp;#34;v&amp;#34;:&amp;#34;left&amp;#34;},{&amp;#34;s&amp;#34;:230,&amp;#34;n&amp;#34;:&amp;#34;a&amp;#34;,&amp;#34;v&amp;#34;:&amp;#34;left&amp;#34;},{&amp;#34;s&amp;#34;:254,&amp;#34;n&amp;#34;:&amp;#34;a&amp;#34;,&amp;#34;v&amp;#34;:&amp;#34;left&amp;#34;},{&amp;#34;s&amp;#34;:279,&amp;#34;n&amp;#34;:&amp;#34;a&amp;#34;,&amp;#34;v&amp;#34;:&amp;#34;left&amp;#34;},{&amp;#34;s&amp;#34;:311,&amp;#34;n&amp;#34;:&amp;#34;a&amp;#34;,&amp;#34;v&amp;#34;:&amp;#34;left&amp;#34;},{&amp;#34;s&amp;#34;:341,&amp;#34;n&amp;#34;:&amp;#34;a&amp;#34;,&amp;#34;v&amp;#34;:&amp;#34;left&amp;#34;},{&amp;#34;s&amp;#34;:379,&amp;#34;n&amp;#34;:&amp;#34;a&amp;#34;,&amp;#34;v&amp;#34;:&amp;#34;left&amp;#34;},{&amp;#34;s&amp;#34;:415,&amp;#34;n&amp;#34;:&amp;#34;a&amp;#34;,&amp;#34;v&amp;#34;:&amp;#34;left&amp;#34;},{&amp;#34;s&amp;#34;:428,&amp;#34;n&amp;#34;:&amp;#34;a&amp;#34;,&amp;#34;v&amp;#34;:&amp;#34;left&amp;#34;},{&amp;#34;s&amp;#34;:453,&amp;#34;n&amp;#34;:&amp;#34;a&amp;#34;,&amp;#34;v&amp;#34;:&amp;#34;left&amp;#34;},{&amp;#34;s&amp;#34;:482,&amp;#34;n&amp;#34;:&amp;#34;a&amp;#34;,&amp;#34;v&amp;#34;:&amp;#34;left&amp;#34;},{&amp;#34;s&amp;#34;:525,&amp;#34;n&amp;#34;:&amp;#34;a&amp;#34;,&amp;#34;v&amp;#34;:&amp;#34;left&amp;#34;},{&amp;#34;s&amp;#34;:586,&amp;#34;n&amp;#34;:&amp;#34;a&amp;#34;,&amp;#34;v&amp;#34;:&amp;#34;left&amp;#34;},{&amp;#34;s&amp;#34;:681,&amp;#34;n&amp;#34;:&amp;#34;a&amp;#34;,&amp;#34;v&amp;#34;:&amp;#34;left&amp;#34;},{&amp;#34;s&amp;#34;:733,&amp;#34;n&amp;#34;:&amp;#34;a&amp;#34;,&amp;#34;v&amp;#34;:&amp;#34;left&amp;#34;},{&amp;#34;s&amp;#34;:772,&amp;#34;n&amp;#34;:&amp;#34;a&amp;#34;,&amp;#34;v&amp;#34;:&amp;#34;left&amp;#34;}]}&quot;&gt;&lt;span&gt;  Revision y cumplimiento de dessarrollo control de versiones, sonar, sonarlint, dependencias&lt;br&gt; &lt;/span&gt;&lt;/span&gt;&lt;span data-lucid-type=&quot;application/vnd.lucid.text&quot; data-lucid-content=&quot;{&amp;#34;t&amp;#34;:&amp;#34;Calidad (Control y Aseguramiento)\n1 inteligo + (2 SAB, 1 ODI, 1 WEB *, 1 BIZAGI *)\nPruebas Funcionales\n   Plan de Pruebas\n      Test Case\n      Preparacion de Data en Ambientes\n      Execution\n      Recolectar Evidancias (Result)\n      Reportar defectos\n   Biblioteca de Pruebas\n   Indicadores (Coverturas) (*)\nPruebas de Automatizacion (*)\n   Codificacion de las Automatizacion\n   Preparacion de Data en Ambientes\n   Execucion\n   Recolectar Evidancias\nPruebas de Stress (Opcional)\nAseguramiento de la calidad (Procesos) (*)\n  Revision y cumplimiento de la informacion en las historias\n  Revision y cumplimiento de dessarrollo control de versiones, sonar, sonarlint, dependencias \n  Cordinacion entre el equipo QA (2 SAB, 1 ODI) (*)\n  UAT presentacion de ciclo de pruebas\n  Revision de los entregables para despliegue de enlatado en un repositorio de componentesCD&amp;#34;,&amp;#34;m&amp;#34;:[{&amp;#34;s&amp;#34;:0,&amp;#34;n&amp;#34;:&amp;#34;a&amp;#34;,&amp;#34;v&amp;#34;:&amp;#34;left&amp;#34;},{&amp;#34;s&amp;#34;:34,&amp;#34;n&amp;#34;:&amp;#34;a&amp;#34;,&amp;#34;v&amp;#34;:&amp;#34;left&amp;#34;},{&amp;#34;s&amp;#34;:83,&amp;#34;n&amp;#34;:&amp;#34;a&amp;#34;,&amp;#34;v&amp;#34;:&amp;#34;left&amp;#34;},{&amp;#34;s&amp;#34;:103,&amp;#34;n&amp;#34;:&amp;#34;a&amp;#34;,&amp;#34;v&amp;#34;:&amp;#34;left&amp;#34;},{&amp;#34;s&amp;#34;:122,&amp;#34;n&amp;#34;:&amp;#34;a&amp;#34;,&amp;#34;v&amp;#34;:&amp;#34;left&amp;#34;},{&amp;#34;s&amp;#34;:138,&amp;#34;n&amp;#34;:&amp;#34;a&amp;#34;,&amp;#34;v&amp;#34;:&amp;#34;left&amp;#34;},{&amp;#34;s&amp;#34;:177,&amp;#34;n&amp;#34;:&amp;#34;a&amp;#34;,&amp;#34;v&amp;#34;:&amp;#34;left&amp;#34;},{&amp;#34;s&amp;#34;:193,&amp;#34;n&amp;#34;:&amp;#34;a&amp;#34;,&amp;#34;v&amp;#34;:&amp;#34;left&amp;#34;},{&amp;#34;s&amp;#34;:230,&amp;#34;n&amp;#34;:&amp;#34;a&amp;#34;,&amp;#34;v&amp;#34;:&amp;#34;left&amp;#34;},{&amp;#34;s&amp;#34;:254,&amp;#34;n&amp;#34;:&amp;#34;a&amp;#34;,&amp;#34;v&amp;#34;:&amp;#34;left&amp;#34;},{&amp;#34;s&amp;#34;:279,&amp;#34;n&amp;#34;:&amp;#34;a&amp;#34;,&amp;#34;v&amp;#34;:&amp;#34;left&amp;#34;},{&amp;#34;s&amp;#34;:311,&amp;#34;n&amp;#34;:&amp;#34;a&amp;#34;,&amp;#34;v&amp;#34;:&amp;#34;left&amp;#34;},{&amp;#34;s&amp;#34;:341,&amp;#34;n&amp;#34;:&amp;#34;a&amp;#34;,&amp;#34;v&amp;#34;:&amp;#34;left&amp;#34;},{&amp;#34;s&amp;#34;:379,&amp;#34;n&amp;#34;:&amp;#34;a&amp;#34;,&amp;#34;v&amp;#34;:&amp;#34;left&amp;#34;},{&amp;#34;s&amp;#34;:415,&amp;#34;n&amp;#34;:&amp;#34;a&amp;#34;,&amp;#34;v&amp;#34;:&amp;#34;left&amp;#34;},{&amp;#34;s&amp;#34;:428,&amp;#34;n&amp;#34;:&amp;#34;a&amp;#34;,&amp;#34;v&amp;#34;:&amp;#34;left&amp;#34;},{&amp;#34;s&amp;#34;:453,&amp;#34;n&amp;#34;:&amp;#34;a&amp;#34;,&amp;#34;v&amp;#34;:&amp;#34;left&amp;#34;},{&amp;#34;s&amp;#34;:482,&amp;#34;n&amp;#34;:&amp;#34;a&amp;#34;,&amp;#34;v&amp;#34;:&amp;#34;left&amp;#34;},{&amp;#34;s&amp;#34;:525,&amp;#34;n&amp;#34;:&amp;#34;a&amp;#34;,&amp;#34;v&amp;#34;:&amp;#34;left&amp;#34;},{&amp;#34;s&amp;#34;:586,&amp;#34;n&amp;#34;:&amp;#34;a&amp;#34;,&amp;#34;v&amp;#34;:&amp;#34;left&amp;#34;},{&amp;#34;s&amp;#34;:681,&amp;#34;n&amp;#34;:&amp;#34;a&amp;#34;,&amp;#34;v&amp;#34;:&amp;#34;left&amp;#34;},{&amp;#34;s&amp;#34;:733,&amp;#34;n&amp;#34;:&amp;#34;a&amp;#34;,&amp;#34;v&amp;#34;:&amp;#34;left&amp;#34;},{&amp;#34;s&amp;#34;:772,&amp;#34;n&amp;#34;:&amp;#34;a&amp;#34;,&amp;#34;v&amp;#34;:&amp;#34;left&amp;#34;}]}&quot;&gt;&lt;span&gt;  Cordinacion entre el equipo QA&amp;nbsp;&lt;br&gt;&lt;/span&gt;&lt;/span&gt;&lt;span data-lucid-type=&quot;application/vnd.lucid.text&quot; data-lucid-content=&quot;{&amp;#34;t&amp;#34;:&amp;#34;Calidad (Control y Aseguramiento)\n1 inteligo + (2 SAB, 1 ODI, 1 WEB *, 1 BIZAGI *)\nPruebas Funcionales\n   Plan de Pruebas\n      Test Case\n      Preparacion de Data en Ambientes\n      Execution\n      Recolectar Evidancias (Result)\n      Reportar defectos\n   Biblioteca de Pruebas\n   Indicadores (Coverturas) (*)\nPruebas de Automatizacion (*)\n   Codificacion de las Automatizacion\n   Preparacion de Data en Ambientes\n   Execucion\n   Recolectar Evidancias\nPruebas de Stress (Opcional)\nAseguramiento de la calidad (Procesos) (*)\n  Revision y cumplimiento de la informacion en las historias\n  Revision y cumplimiento de dessarrollo control de versiones, sonar, sonarlint, dependencias \n  Cordinacion entre el equipo QA (2 SAB, 1 ODI) (*)\n  UAT presentacion de ciclo de pruebas\n  Revision de los entregables para despliegue de enlatado en un repositorio de componentesCD&amp;#34;,&amp;#34;m&amp;#34;:[{&amp;#34;s&amp;#34;:0,&amp;#34;n&amp;#34;:&amp;#34;a&amp;#34;,&amp;#34;v&amp;#34;:&amp;#34;left&amp;#34;},{&amp;#34;s&amp;#34;:34,&amp;#34;n&amp;#34;:&amp;#34;a&amp;#34;,&amp;#34;v&amp;#34;:&amp;#34;left&amp;#34;},{&amp;#34;s&amp;#34;:83,&amp;#34;n&amp;#34;:&amp;#34;a&amp;#34;,&amp;#34;v&amp;#34;:&amp;#34;left&amp;#34;},{&amp;#34;s&amp;#34;:103,&amp;#34;n&amp;#34;:&amp;#34;a&amp;#34;,&amp;#34;v&amp;#34;:&amp;#34;left&amp;#34;},{&amp;#34;s&amp;#34;:122,&amp;#34;n&amp;#34;:&amp;#34;a&amp;#34;,&amp;#34;v&amp;#34;:&amp;#34;left&amp;#34;},{&amp;#34;s&amp;#34;:138,&amp;#34;n&amp;#34;:&amp;#34;a&amp;#34;,&amp;#34;v&amp;#34;:&amp;#34;left&amp;#34;},{&amp;#34;s&amp;#34;:177,&amp;#34;n&amp;#34;:&amp;#34;a&amp;#34;,&amp;#34;v&amp;#34;:&amp;#34;left&amp;#34;},{&amp;#34;s&amp;#34;:193,&amp;#34;n&amp;#34;:&amp;#34;a&amp;#34;,&amp;#34;v&amp;#34;:&amp;#34;left&amp;#34;},{&amp;#34;s&amp;#34;:230,&amp;#34;n&amp;#34;:&amp;#34;a&amp;#34;,&amp;#34;v&amp;#34;:&amp;#34;left&amp;#34;},{&amp;#34;s&amp;#34;:254,&amp;#34;n&amp;#34;:&amp;#34;a&amp;#34;,&amp;#34;v&amp;#34;:&amp;#34;left&amp;#34;},{&amp;#34;s&amp;#34;:279,&amp;#34;n&amp;#34;:&amp;#34;a&amp;#34;,&amp;#34;v&amp;#34;:&amp;#34;left&amp;#34;},{&amp;#34;s&amp;#34;:311,&amp;#34;n&amp;#34;:&amp;#34;a&amp;#34;,&amp;#34;v&amp;#34;:&amp;#34;left&amp;#34;},{&amp;#34;s&amp;#34;:341,&amp;#34;n&amp;#34;:&amp;#34;a&amp;#34;,&amp;#34;v&amp;#34;:&amp;#34;left&amp;#34;},{&amp;#34;s&amp;#34;:379,&amp;#34;n&amp;#34;:&amp;#34;a&amp;#34;,&amp;#34;v&amp;#34;:&amp;#34;left&amp;#34;},{&amp;#34;s&amp;#34;:415,&amp;#34;n&amp;#34;:&amp;#34;a&amp;#34;,&amp;#34;v&amp;#34;:&amp;#34;left&amp;#34;},{&amp;#34;s&amp;#34;:428,&amp;#34;n&amp;#34;:&amp;#34;a&amp;#34;,&amp;#34;v&amp;#34;:&amp;#34;left&amp;#34;},{&amp;#34;s&amp;#34;:453,&amp;#34;n&amp;#34;:&amp;#34;a&amp;#34;,&amp;#34;v&amp;#34;:&amp;#34;left&amp;#34;},{&amp;#34;s&amp;#34;:482,&amp;#34;n&amp;#34;:&amp;#34;a&amp;#34;,&amp;#34;v&amp;#34;:&amp;#34;left&amp;#34;},{&amp;#34;s&amp;#34;:525,&amp;#34;n&amp;#34;:&amp;#34;a&amp;#34;,&amp;#34;v&amp;#34;:&amp;#34;left&amp;#34;},{&amp;#34;s&amp;#34;:586,&amp;#34;n&amp;#34;:&amp;#34;a&amp;#34;,&amp;#34;v&amp;#34;:&amp;#34;left&amp;#34;},{&amp;#34;s&amp;#34;:681,&amp;#34;n&amp;#34;:&amp;#34;a&amp;#34;,&amp;#34;v&amp;#34;:&amp;#34;left&amp;#34;},{&amp;#34;s&amp;#34;:733,&amp;#34;n&amp;#34;:&amp;#34;a&amp;#34;,&amp;#34;v&amp;#34;:&amp;#34;left&amp;#34;},{&amp;#34;s&amp;#34;:772,&amp;#34;n&amp;#34;:&amp;#34;a&amp;#34;,&amp;#34;v&amp;#34;:&amp;#34;left&amp;#34;}]}&quot;&gt;&lt;span&gt;  UAT presentacion de ciclo de pruebas&lt;br&gt;&lt;/span&gt;&lt;/span&gt;&lt;span data-lucid-type=&quot;application/vnd.lucid.text&quot; data-lucid-content=&quot;{&amp;#34;t&amp;#34;:&amp;#34;Calidad (Control y Aseguramiento)\n1 inteligo + (2 SAB, 1 ODI, 1 WEB *, 1 BIZAGI *)\nPruebas Funcionales\n   Plan de Pruebas\n      Test Case\n      Preparacion de Data en Ambientes\n      Execution\n      Recolectar Evidancias (Result)\n      Reportar defectos\n   Biblioteca de Pruebas\n   Indicadores (Coverturas) (*)\nPruebas de Automatizacion (*)\n   Codificacion de las Automatizacion\n   Preparacion de Data en Ambientes\n   Execucion\n   Recolectar Evidancias\nPruebas de Stress (Opcional)\nAseguramiento de la calidad (Procesos) (*)\n  Revision y cumplimiento de la informacion en las historias\n  Revision y cumplimiento de dessarrollo control de versiones, sonar, sonarlint, dependencias \n  Cordinacion entre el equipo QA (2 SAB, 1 ODI) (*)\n  UAT presentacion de ciclo de pruebas\n  Revision de los entregables para despliegue de enlatado en un repositorio de componentesCD&amp;#34;,&amp;#34;m&amp;#34;:[{&amp;#34;s&amp;#34;:0,&amp;#34;n&amp;#34;:&amp;#34;a&amp;#34;,&amp;#34;v&amp;#34;:&amp;#34;left&amp;#34;},{&amp;#34;s&amp;#34;:34,&amp;#34;n&amp;#34;:&amp;#34;a&amp;#34;,&amp;#34;v&amp;#34;:&amp;#34;left&amp;#34;},{&amp;#34;s&amp;#34;:83,&amp;#34;n&amp;#34;:&amp;#34;a&amp;#34;,&amp;#34;v&amp;#34;:&amp;#34;left&amp;#34;},{&amp;#34;s&amp;#34;:103,&amp;#34;n&amp;#34;:&amp;#34;a&amp;#34;,&amp;#34;v&amp;#34;:&amp;#34;left&amp;#34;},{&amp;#34;s&amp;#34;:122,&amp;#34;n&amp;#34;:&amp;#34;a&amp;#34;,&amp;#34;v&amp;#34;:&amp;#34;left&amp;#34;},{&amp;#34;s&amp;#34;:138,&amp;#34;n&amp;#34;:&amp;#34;a&amp;#34;,&amp;#34;v&amp;#34;:&amp;#34;left&amp;#34;},{&amp;#34;s&amp;#34;:177,&amp;#34;n&amp;#34;:&amp;#34;a&amp;#34;,&amp;#34;v&amp;#34;:&amp;#34;left&amp;#34;},{&amp;#34;s&amp;#34;:193,&amp;#34;n&amp;#34;:&amp;#34;a&amp;#34;,&amp;#34;v&amp;#34;:&amp;#34;left&amp;#34;},{&amp;#34;s&amp;#34;:230,&amp;#34;n&amp;#34;:&amp;#34;a&amp;#34;,&amp;#34;v&amp;#34;:&amp;#34;left&amp;#34;},{&amp;#34;s&amp;#34;:254,&amp;#34;n&amp;#34;:&amp;#34;a&amp;#34;,&amp;#34;v&amp;#34;:&amp;#34;left&amp;#34;},{&amp;#34;s&amp;#34;:279,&amp;#34;n&amp;#34;:&amp;#34;a&amp;#34;,&amp;#34;v&amp;#34;:&amp;#34;left&amp;#34;},{&amp;#34;s&amp;#34;:311,&amp;#34;n&amp;#34;:&amp;#34;a&amp;#34;,&amp;#34;v&amp;#34;:&amp;#34;left&amp;#34;},{&amp;#34;s&amp;#34;:341,&amp;#34;n&amp;#34;:&amp;#34;a&amp;#34;,&amp;#34;v&amp;#34;:&amp;#34;left&amp;#34;},{&amp;#34;s&amp;#34;:379,&amp;#34;n&amp;#34;:&amp;#34;a&amp;#34;,&amp;#34;v&amp;#34;:&amp;#34;left&amp;#34;},{&amp;#34;s&amp;#34;:415,&amp;#34;n&amp;#34;:&amp;#34;a&amp;#34;,&amp;#34;v&amp;#34;:&amp;#34;left&amp;#34;},{&amp;#34;s&amp;#34;:428,&amp;#34;n&amp;#34;:&amp;#34;a&amp;#34;,&amp;#34;v&amp;#34;:&amp;#34;left&amp;#34;},{&amp;#34;s&amp;#34;:453,&amp;#34;n&amp;#34;:&amp;#34;a&amp;#34;,&amp;#34;v&amp;#34;:&amp;#34;left&amp;#34;},{&amp;#34;s&amp;#34;:482,&amp;#34;n&amp;#34;:&amp;#34;a&amp;#34;,&amp;#34;v&amp;#34;:&amp;#34;left&amp;#34;},{&amp;#34;s&amp;#34;:525,&amp;#34;n&amp;#34;:&amp;#34;a&amp;#34;,&amp;#34;v&amp;#34;:&amp;#34;left&amp;#34;},{&amp;#34;s&amp;#34;:586,&amp;#34;n&amp;#34;:&amp;#34;a&amp;#34;,&amp;#34;v&amp;#34;:&amp;#34;left&amp;#34;},{&amp;#34;s&amp;#34;:681,&amp;#34;n&amp;#34;:&amp;#34;a&amp;#34;,&amp;#34;v&amp;#34;:&amp;#34;left&amp;#34;},{&amp;#34;s&amp;#34;:733,&amp;#34;n&amp;#34;:&amp;#34;a&amp;#34;,&amp;#34;v&amp;#34;:&amp;#34;left&amp;#34;},{&amp;#34;s&amp;#34;:772,&amp;#34;n&amp;#34;:&amp;#34;a&amp;#34;,&amp;#34;v&amp;#34;:&amp;#34;left&amp;#34;}]}&quot;&gt;&lt;span&gt;  Revision de los entregables para despliegue de enlatado en un repositorio de componentesCD&lt;/span&gt;&lt;/span&gt;&lt;/blockquote&gt;" style="text;html=1;strokeColor=none;fillColor=none;align=left;verticalAlign=middle;whiteSpace=wrap;rounded=0;" parent="6z6u2LCvfEY30JD9aU4q-1" vertex="1">
          <mxGeometry x="1090" y="580" width="590" height="20" as="geometry" />
        </mxCell>
        <mxCell id="y6N_g2PqmZ9uL1G1EBGe-3" style="edgeStyle=orthogonalEdgeStyle;rounded=0;orthogonalLoop=1;jettySize=auto;html=1;" parent="6z6u2LCvfEY30JD9aU4q-1" source="y6N_g2PqmZ9uL1G1EBGe-0" edge="1">
          <mxGeometry relative="1" as="geometry">
            <mxPoint x="400" as="targetPoint" />
          </mxGeometry>
        </mxCell>
        <mxCell id="y6N_g2PqmZ9uL1G1EBGe-0" value="X.Y.Z" style="text;html=1;strokeColor=none;fillColor=none;align=center;verticalAlign=middle;whiteSpace=wrap;rounded=0;" parent="6z6u2LCvfEY30JD9aU4q-1" vertex="1">
          <mxGeometry x="240" y="-50" width="40" height="20" as="geometry" />
        </mxCell>
        <mxCell id="y6N_g2PqmZ9uL1G1EBGe-1" value="X-&amp;gt;cambios arquitecura no compatible con versiones anteriores&lt;br&gt;Y-&amp;gt;mejoras o nuevas funcionalidaes, correccion de errores&lt;br&gt;Z-&amp;gt;correccion de fallos y defectos&lt;br&gt;W-&amp;gt;build ensamblado" style="text;html=1;strokeColor=none;fillColor=none;align=left;verticalAlign=middle;whiteSpace=wrap;rounded=0;" parent="6z6u2LCvfEY30JD9aU4q-1" vertex="1">
          <mxGeometry x="400" y="10" width="480" height="20" as="geometry" />
        </mxCell>
        <mxCell id="y6N_g2PqmZ9uL1G1EBGe-5" style="edgeStyle=orthogonalEdgeStyle;rounded=0;orthogonalLoop=1;jettySize=auto;html=1;entryX=0.871;entryY=-0.067;entryDx=0;entryDy=0;entryPerimeter=0;" parent="6z6u2LCvfEY30JD9aU4q-1" source="y6N_g2PqmZ9uL1G1EBGe-4" target="zjrekccC_--PjVNx3uR7-0" edge="1">
          <mxGeometry relative="1" as="geometry">
            <Array as="points">
              <mxPoint x="665" y="210" />
              <mxPoint x="665" y="236" />
            </Array>
          </mxGeometry>
        </mxCell>
        <mxCell id="y6N_g2PqmZ9uL1G1EBGe-7" value="Tailoring" style="edgeLabel;html=1;align=center;verticalAlign=middle;resizable=0;points=[];" parent="y6N_g2PqmZ9uL1G1EBGe-5" vertex="1" connectable="0">
          <mxGeometry x="-0.4223" y="5" relative="1" as="geometry">
            <mxPoint x="-12" y="5" as="offset" />
          </mxGeometry>
        </mxCell>
        <mxCell id="y6N_g2PqmZ9uL1G1EBGe-4" value="Agile UP&lt;br&gt;Open UP&lt;br&gt;RUP&lt;br&gt;Agile Software Methodology&lt;br&gt;XP&lt;br&gt;Metrica" style="text;html=1;strokeColor=none;fillColor=none;align=center;verticalAlign=middle;whiteSpace=wrap;rounded=0;" parent="6z6u2LCvfEY30JD9aU4q-1" vertex="1">
          <mxGeometry x="820" y="180" width="200" height="100" as="geometry" />
        </mxCell>
        <mxCell id="y6N_g2PqmZ9uL1G1EBGe-6" value="Modelos de Referencia" style="text;html=1;strokeColor=none;fillColor=none;align=center;verticalAlign=middle;whiteSpace=wrap;rounded=0;" parent="6z6u2LCvfEY30JD9aU4q-1" vertex="1">
          <mxGeometry x="823.5" y="150" width="200" height="20" as="geometry" />
        </mxCell>
        <mxCell id="y6N_g2PqmZ9uL1G1EBGe-8" value="Compañia" style="rounded=0;whiteSpace=wrap;html=1;align=center;" parent="6z6u2LCvfEY30JD9aU4q-1" vertex="1">
          <mxGeometry x="1190" y="220" width="120" height="60" as="geometry" />
        </mxCell>
        <mxCell id="y6N_g2PqmZ9uL1G1EBGe-9" value="Competencia" style="ellipse;whiteSpace=wrap;html=1;align=center;" parent="6z6u2LCvfEY30JD9aU4q-1" vertex="1">
          <mxGeometry x="1205" y="120" width="90" height="80" as="geometry" />
        </mxCell>
        <mxCell id="y6N_g2PqmZ9uL1G1EBGe-10" value="Clientes" style="ellipse;whiteSpace=wrap;html=1;align=center;" parent="6z6u2LCvfEY30JD9aU4q-1" vertex="1">
          <mxGeometry x="1340" y="210" width="90" height="80" as="geometry" />
        </mxCell>
        <mxCell id="y6N_g2PqmZ9uL1G1EBGe-11" value="Gobierno" style="ellipse;whiteSpace=wrap;html=1;align=center;" parent="6z6u2LCvfEY30JD9aU4q-1" vertex="1">
          <mxGeometry x="1205" y="310" width="90" height="80" as="geometry" />
        </mxCell>
        <mxCell id="y6N_g2PqmZ9uL1G1EBGe-12" value="Sustitutos y provedores" style="ellipse;whiteSpace=wrap;html=1;align=center;" parent="6z6u2LCvfEY30JD9aU4q-1" vertex="1">
          <mxGeometry x="1080" y="200" width="90" height="80" as="geometry" />
        </mxCell>
        <mxCell id="y6N_g2PqmZ9uL1G1EBGe-13" value="Time to Market" style="text;html=1;strokeColor=none;fillColor=none;align=center;verticalAlign=middle;whiteSpace=wrap;rounded=0;" parent="6z6u2LCvfEY30JD9aU4q-1" vertex="1">
          <mxGeometry x="760" y="80" width="220" height="20" as="geometry" />
        </mxCell>
        <mxCell id="RMLEh_9UbSDyc-wS8csE-0" value="Aseguramiento de la calidad" style="text;html=1;strokeColor=none;fillColor=none;align=center;verticalAlign=middle;whiteSpace=wrap;rounded=0;" parent="6z6u2LCvfEY30JD9aU4q-1" vertex="1">
          <mxGeometry x="40" y="380" width="40" height="20" as="geometry" />
        </mxCell>
        <mxCell id="RMLEh_9UbSDyc-wS8csE-1" value="Control de la Calidad" style="text;html=1;strokeColor=#82b366;align=center;verticalAlign=middle;whiteSpace=wrap;rounded=0;fillColor=#d5e8d4;" parent="6z6u2LCvfEY30JD9aU4q-1" vertex="1">
          <mxGeometry x="460" y="460" width="180" height="20" as="geometry" />
        </mxCell>
        <mxCell id="RMLEh_9UbSDyc-wS8csE-2" value="control" style="rounded=0;whiteSpace=wrap;html=1;fillColor=#fff2cc;strokeColor=#d6b656;" parent="6z6u2LCvfEY30JD9aU4q-1" vertex="1">
          <mxGeometry x="500" y="350" width="60" height="30" as="geometry" />
        </mxCell>
        <mxCell id="KYKxkfu1PhvjaNEveb2y-0" value="2.21.9.13" style="text;html=1;strokeColor=none;fillColor=none;align=center;verticalAlign=middle;whiteSpace=wrap;rounded=0;" parent="6z6u2LCvfEY30JD9aU4q-1" vertex="1">
          <mxGeometry x="370" y="-90" width="40" height="20" as="geometry" />
        </mxCell>
        <mxCell id="KYKxkfu1PhvjaNEveb2y-2" value="Proyecto" style="shape=hexagon;perimeter=hexagonPerimeter2;whiteSpace=wrap;html=1;fixedSize=1;" parent="6z6u2LCvfEY30JD9aU4q-1" vertex="1">
          <mxGeometry x="540" y="-190" width="100" height="50" as="geometry" />
        </mxCell>
        <mxCell id="KYKxkfu1PhvjaNEveb2y-3" value="Interesados" style="ellipse;whiteSpace=wrap;html=1;" parent="6z6u2LCvfEY30JD9aU4q-1" vertex="1">
          <mxGeometry x="600" y="-270" width="80" height="40" as="geometry" />
        </mxCell>
        <mxCell id="KYKxkfu1PhvjaNEveb2y-4" value="Alcance" style="ellipse;whiteSpace=wrap;html=1;" parent="6z6u2LCvfEY30JD9aU4q-1" vertex="1">
          <mxGeometry x="650" y="-230" width="80" height="40" as="geometry" />
        </mxCell>
        <mxCell id="KYKxkfu1PhvjaNEveb2y-5" value="Tiempo" style="ellipse;whiteSpace=wrap;html=1;" parent="6z6u2LCvfEY30JD9aU4q-1" vertex="1">
          <mxGeometry x="670" y="-185" width="80" height="40" as="geometry" />
        </mxCell>
        <mxCell id="KYKxkfu1PhvjaNEveb2y-6" value="Costo" style="ellipse;whiteSpace=wrap;html=1;" parent="6z6u2LCvfEY30JD9aU4q-1" vertex="1">
          <mxGeometry x="670" y="-140" width="80" height="40" as="geometry" />
        </mxCell>
        <mxCell id="KYKxkfu1PhvjaNEveb2y-7" value="Recursos" style="ellipse;whiteSpace=wrap;html=1;" parent="6z6u2LCvfEY30JD9aU4q-1" vertex="1">
          <mxGeometry x="610" y="-100" width="80" height="40" as="geometry" />
        </mxCell>
        <mxCell id="KYKxkfu1PhvjaNEveb2y-8" value="Comunicacion" style="ellipse;whiteSpace=wrap;html=1;" parent="6z6u2LCvfEY30JD9aU4q-1" vertex="1">
          <mxGeometry x="520" y="-100" width="80" height="40" as="geometry" />
        </mxCell>
        <mxCell id="KYKxkfu1PhvjaNEveb2y-9" value="Adquision" style="ellipse;whiteSpace=wrap;html=1;" parent="6z6u2LCvfEY30JD9aU4q-1" vertex="1">
          <mxGeometry x="470" y="-140" width="80" height="40" as="geometry" />
        </mxCell>
        <mxCell id="KYKxkfu1PhvjaNEveb2y-13" style="edgeStyle=orthogonalEdgeStyle;rounded=0;orthogonalLoop=1;jettySize=auto;html=1;" parent="6z6u2LCvfEY30JD9aU4q-1" source="KYKxkfu1PhvjaNEveb2y-10" edge="1">
          <mxGeometry relative="1" as="geometry">
            <mxPoint x="290" y="-150" as="targetPoint" />
          </mxGeometry>
        </mxCell>
        <mxCell id="KYKxkfu1PhvjaNEveb2y-10" value="Calidad" style="ellipse;whiteSpace=wrap;html=1;fillColor=#fff2cc;strokeColor=#d6b656;" parent="6z6u2LCvfEY30JD9aU4q-1" vertex="1">
          <mxGeometry x="440" y="-185" width="80" height="40" as="geometry" />
        </mxCell>
        <mxCell id="KYKxkfu1PhvjaNEveb2y-11" value="Integracion" style="ellipse;whiteSpace=wrap;html=1;" parent="6z6u2LCvfEY30JD9aU4q-1" vertex="1">
          <mxGeometry x="510" y="-270" width="80" height="40" as="geometry" />
        </mxCell>
        <mxCell id="KYKxkfu1PhvjaNEveb2y-12" value="PM" style="shape=umlActor;verticalLabelPosition=bottom;verticalAlign=top;html=1;outlineConnect=0;" parent="6z6u2LCvfEY30JD9aU4q-1" vertex="1">
          <mxGeometry x="370" y="-250" width="30" height="60" as="geometry" />
        </mxCell>
        <mxCell id="KYKxkfu1PhvjaNEveb2y-14" value="Producto" style="text;html=1;strokeColor=none;fillColor=none;align=center;verticalAlign=middle;whiteSpace=wrap;rounded=0;" parent="6z6u2LCvfEY30JD9aU4q-1" vertex="1">
          <mxGeometry x="240" y="-230" width="40" height="20" as="geometry" />
        </mxCell>
        <mxCell id="KYKxkfu1PhvjaNEveb2y-15" value="Procesos" style="text;html=1;strokeColor=none;fillColor=none;align=center;verticalAlign=middle;whiteSpace=wrap;rounded=0;" parent="6z6u2LCvfEY30JD9aU4q-1" vertex="1">
          <mxGeometry x="240" y="-205" width="40" height="20" as="geometry" />
        </mxCell>
        <mxCell id="KYKxkfu1PhvjaNEveb2y-16" value="Metodologia" style="text;html=1;strokeColor=none;fillColor=none;align=center;verticalAlign=middle;whiteSpace=wrap;rounded=0;" parent="6z6u2LCvfEY30JD9aU4q-1" vertex="1">
          <mxGeometry x="240" y="-185" width="40" height="20" as="geometry" />
        </mxCell>
        <mxCell id="KYKxkfu1PhvjaNEveb2y-17" value="Agile UP&lt;br&gt;Open UP&lt;br&gt;RUP&lt;br&gt;Agile Software Methodology&lt;br&gt;XP&lt;br&gt;Metrica" style="text;html=1;strokeColor=none;fillColor=none;align=center;verticalAlign=middle;whiteSpace=wrap;rounded=0;" parent="6z6u2LCvfEY30JD9aU4q-1" vertex="1">
          <mxGeometry y="-200" width="200" height="100" as="geometry" />
        </mxCell>
        <mxCell id="KYKxkfu1PhvjaNEveb2y-18" value="Modelos de Referencia" style="text;html=1;strokeColor=none;fillColor=none;align=center;verticalAlign=middle;whiteSpace=wrap;rounded=0;" parent="6z6u2LCvfEY30JD9aU4q-1" vertex="1">
          <mxGeometry x="3.5" y="-230" width="200" height="20" as="geometry" />
        </mxCell>
        <mxCell id="KYKxkfu1PhvjaNEveb2y-19" value="Plan Gestion Calidad" style="text;html=1;strokeColor=none;fillColor=none;align=center;verticalAlign=middle;whiteSpace=wrap;rounded=0;" parent="6z6u2LCvfEY30JD9aU4q-1" vertex="1">
          <mxGeometry x="210" y="-140" width="120" height="20" as="geometry" />
        </mxCell>
        <mxCell id="KYKxkfu1PhvjaNEveb2y-20" value="Aseguramiento Calidad&lt;br&gt;Control Calidad" style="text;html=1;strokeColor=none;fillColor=none;align=center;verticalAlign=middle;whiteSpace=wrap;rounded=0;" parent="6z6u2LCvfEY30JD9aU4q-1" vertex="1">
          <mxGeometry x="190" y="-120" width="170" height="20" as="geometry" />
        </mxCell>
        <mxCell id="KYKxkfu1PhvjaNEveb2y-22" value="Metodologia de Desarrollo Software" style="text;html=1;strokeColor=none;fillColor=none;align=center;verticalAlign=middle;whiteSpace=wrap;rounded=0;" parent="6z6u2LCvfEY30JD9aU4q-1" vertex="1">
          <mxGeometry x="-20" y="-260" width="330" height="20" as="geometry" />
        </mxCell>
        <mxCell id="KYKxkfu1PhvjaNEveb2y-23" value="Metodologia de Trabajo" style="text;html=1;strokeColor=none;fillColor=none;align=center;verticalAlign=middle;whiteSpace=wrap;rounded=0;" parent="6z6u2LCvfEY30JD9aU4q-1" vertex="1">
          <mxGeometry x="345" y="-400" width="330" height="20" as="geometry" />
        </mxCell>
        <mxCell id="KYKxkfu1PhvjaNEveb2y-24" value="scrum&lt;br&gt;kanban" style="text;html=1;strokeColor=none;fillColor=none;align=center;verticalAlign=middle;whiteSpace=wrap;rounded=0;" parent="6z6u2LCvfEY30JD9aU4q-1" vertex="1">
          <mxGeometry x="370" y="-370" width="330" height="20" as="geometry" />
        </mxCell>
        <mxCell id="KYKxkfu1PhvjaNEveb2y-25" value="Ceremonias" style="text;html=1;strokeColor=none;fillColor=none;align=center;verticalAlign=middle;whiteSpace=wrap;rounded=0;" parent="6z6u2LCvfEY30JD9aU4q-1" vertex="1">
          <mxGeometry x="710" y="-400" width="40" height="20" as="geometry" />
        </mxCell>
        <mxCell id="KYKxkfu1PhvjaNEveb2y-26" value="grooming planning&lt;br&gt;daily stand up&lt;br&gt;retrospectiva&lt;br&gt;release" style="text;html=1;strokeColor=none;fillColor=none;align=center;verticalAlign=middle;whiteSpace=wrap;rounded=0;" parent="6z6u2LCvfEY30JD9aU4q-1" vertex="1">
          <mxGeometry x="730" y="-370" width="110" height="20" as="geometry" />
        </mxCell>
        <mxCell id="KYKxkfu1PhvjaNEveb2y-27" value="Modelos de Madurez" style="text;html=1;strokeColor=none;fillColor=none;align=center;verticalAlign=middle;whiteSpace=wrap;rounded=0;" parent="6z6u2LCvfEY30JD9aU4q-1" vertex="1">
          <mxGeometry x="-170" y="-370" width="330" height="20" as="geometry" />
        </mxCell>
        <mxCell id="KYKxkfu1PhvjaNEveb2y-28" value="CMMI" style="text;html=1;strokeColor=none;fillColor=none;align=center;verticalAlign=middle;whiteSpace=wrap;rounded=0;" parent="6z6u2LCvfEY30JD9aU4q-1" vertex="1">
          <mxGeometry x="-170" y="-350" width="330" height="20" as="geometry" />
        </mxCell>
        <mxCell id="KYKxkfu1PhvjaNEveb2y-29" value="Madurez de tu adopcion de la metodologia" style="text;html=1;strokeColor=none;fillColor=none;align=center;verticalAlign=middle;whiteSpace=wrap;rounded=0;" parent="6z6u2LCvfEY30JD9aU4q-1" vertex="1">
          <mxGeometry x="-40" y="-330" width="330" height="20" as="geometry" />
        </mxCell>
        <mxCell id="KYKxkfu1PhvjaNEveb2y-30" value="aseguramiento de la calidad" style="rounded=0;whiteSpace=wrap;html=1;fillColor=#fff2cc;strokeColor=#d6b656;" parent="6z6u2LCvfEY30JD9aU4q-1" vertex="1">
          <mxGeometry x="160" y="310" width="580" height="30" as="geometry" />
        </mxCell>
        <mxCell id="y6lY452FvMnBK0ukDONr-1" value="Oportunidades o mejoras" style="text;html=1;strokeColor=none;fillColor=none;align=center;verticalAlign=middle;whiteSpace=wrap;rounded=0;" parent="6z6u2LCvfEY30JD9aU4q-1" vertex="1">
          <mxGeometry x="827" y="470" width="40" height="20" as="geometry" />
        </mxCell>
      </root>
    </mxGraphModel>
  </diagram>
</mxfile>
